<?xml version="1.0" encoding="UTF-8"?>
<svg version="1.1" xmlns="http://www.w3.org/2000/svg" width="1000" height="1000">
<path d="M0 0 C1.18021729 0.00676758 1.18021729 0.00676758 2.38427734 0.01367188 C3.18397949 0.01560547 3.98368164 0.01753906 4.80761719 0.01953125 C12.66854774 0.07527155 20.48576241 0.54082877 28.32177734 1.13867188 C28.32177734 1.79867188 28.32177734 2.45867187 28.32177734 3.13867188 C28.9744458 3.11546875 29.62711426 3.09226562 30.29956055 3.06835938 C37.58807875 2.92396846 44.3605565 3.78137786 51.50927734 5.13867188 C52.55664062 5.32945312 53.60400391 5.52023437 54.68310547 5.71679688 C57.23104531 6.18217402 59.77702601 6.65621807 62.32177734 7.13867188 C62.32177734 7.79867188 62.32177734 8.45867187 62.32177734 9.13867188 C63.15708984 9.19474609 63.15708984 9.19474609 64.00927734 9.25195312 C68.62914369 9.64994837 72.59842561 10.40174479 76.92724609 12.17382812 C80.19064378 13.48876977 83.50587572 14.65209277 86.82177734 15.82617188 C88.04896484 16.26316406 89.27615234 16.70015625 90.54052734 17.15039062 C91.91724609 17.63958984 91.91724609 17.63958984 93.32177734 18.13867188 C93.32177734 18.79867188 93.32177734 19.45867187 93.32177734 20.13867188 C94.60052734 20.36554688 95.87927734 20.59242188 97.19677734 20.82617188 C101.65627266 21.82023894 105.26490099 23.50078029 109.28271484 25.63085938 C115.7824688 28.85567303 122.59416324 31.43045599 129.32177734 34.13867188 C129.32177734 34.79867187 129.32177734 35.45867187 129.32177734 36.13867188 C130.49740234 36.23148437 130.49740234 36.23148437 131.69677734 36.32617188 C135.79086334 37.24381184 138.91649083 38.88102239 142.61474609 40.81054688 C146.17958808 42.5595314 149.83890659 43.8577927 153.58349609 45.16601562 C156.29900552 46.13058317 158.96470948 47.17903486 161.63427734 48.26367188 C165.15938791 49.6917071 168.69271541 50.99265232 172.32177734 52.13867188 C172.32177734 52.79867187 172.32177734 53.45867187 172.32177734 54.13867188 C173.02302734 54.24824219 173.72427734 54.3578125 174.44677734 54.47070312 C179.52715689 55.31973395 184.1130666 56.34565273 188.90771484 58.27929688 C192.26480298 59.47437679 195.68598519 60.37771674 199.13427734 61.26367188 C199.77389404 61.43431152 200.41351074 61.60495117 201.07250977 61.78076172 C213.00744579 64.77454949 225.30052789 64.26313335 237.50927734 64.20117188 C239.24169792 64.19614567 240.97411992 64.19158475 242.70654297 64.1875 C246.91165662 64.1765859 251.116701 64.1593834 255.32177734 64.13867188 C255.32177734 63.47867188 255.32177734 62.81867188 255.32177734 62.13867188 C256.00240234 62.01492188 256.68302734 61.89117187 257.38427734 61.76367188 C265.50577961 60.03569267 272.27797579 56.91194102 279.56005859 53.07617188 C289.89850642 47.66867644 289.89850642 47.66867644 296.32177734 48.13867188 C296.65177734 49.12867188 296.98177734 50.11867188 297.32177734 51.13867188 C297.98177734 51.13867188 298.64177734 51.13867188 299.32177734 51.13867188 C299.32177734 52.12867188 299.32177734 53.11867188 299.32177734 54.13867188 C300.31177734 54.46867187 301.30177734 54.79867187 302.32177734 55.13867188 C303.38068223 57.10811861 304.37012002 59.11522226 305.32177734 61.13867188 C306.71334546 63.39053113 308.12110374 65.61366947 309.57177734 67.82617188 C310.36743019 69.05398467 311.16300202 70.28184996 311.95849609 71.50976562 C313.45895782 73.81586082 314.96237697 76.11999115 316.46630859 78.42382812 C317.09923828 79.40222656 317.73216797 80.380625 318.38427734 81.38867188 C318.95275391 82.26007813 319.52123047 83.13148438 320.10693359 84.02929688 C321.32177734 86.13867188 321.32177734 86.13867188 321.32177734 88.13867188 C321.98177734 88.13867188 322.64177734 88.13867188 323.32177734 88.13867188 C323.99332667 89.42780675 324.65886593 90.72007391 325.32177734 92.01367188 C325.69302734 92.73296875 326.06427734 93.45226562 326.44677734 94.19335938 C327.32177734 96.13867188 327.32177734 96.13867188 327.32177734 98.13867188 C327.98177734 98.13867188 328.64177734 98.13867188 329.32177734 98.13867188 C329.71365234 98.96367187 330.10552734 99.78867187 330.50927734 100.63867188 C332.26322111 104.02559777 334.21663505 107.14071571 336.33349609 110.30664062 C337.32177734 112.13867188 337.32177734 112.13867188 337.32177734 115.13867188 C337.98177734 115.13867188 338.64177734 115.13867188 339.32177734 115.13867188 C339.99332667 116.42780675 340.65886593 117.72007391 341.32177734 119.01367188 C341.69302734 119.73296875 342.06427734 120.45226562 342.44677734 121.19335938 C343.32177734 123.13867188 343.32177734 123.13867188 343.32177734 125.13867188 C343.98177734 125.13867188 344.64177734 125.13867188 345.32177734 125.13867188 C345.99297283 126.59492638 346.65859542 128.05375055 347.32177734 129.51367188 C347.69302734 130.32578125 348.06427734 131.13789063 348.44677734 131.97460938 C349.32177734 134.13867188 349.32177734 134.13867188 349.32177734 136.13867188 C349.98177734 136.13867188 350.64177734 136.13867188 351.32177734 136.13867188 C354.67724609 142.84960938 358.03271484 149.56054688 361.38818359 156.27148438 C361.88439209 157.26353882 361.88439209 157.26353882 362.390625 158.27563477 C363.05644449 159.60776451 363.72147588 160.94028844 364.38574219 162.27319336 C365.96235158 165.43453901 367.54916347 168.58929639 369.16943359 171.72851562 C372.82771994 178.87624434 376.01838353 186.06744821 378.91552734 193.54492188 C380.19568216 196.81642863 381.55489802 200.03858565 382.94677734 203.26367188 C385.12756636 208.45702521 386.82268665 213.72173806 388.42333984 219.11914062 C389.17529363 221.64635921 389.97310865 224.14285588 390.82177734 226.63867188 C391.05896484 227.3528125 391.29615234 228.06695313 391.54052734 228.80273438 C392.1115302 230.51003291 392.69687922 232.21255224 393.29052734 233.91210938 C396.0669485 242.26240635 397.47468719 250.56290428 398.70849609 259.24414062 C399.08589115 262.91909669 399.08589115 262.91909669 400.32177734 265.13867188 C400.43315656 267.74663021 400.48590162 270.32694212 400.48974609 272.93554688 C400.49307449 273.72076721 400.49640289 274.50598755 400.49983215 275.31500244 C400.50490497 276.9862001 400.50724037 278.65740793 400.50708008 280.32861328 C400.50923308 282.83709555 400.52728973 285.34511324 400.54638672 287.85351562 C400.58028923 297.4743557 399.93222494 306.63044388 398.32177734 316.13867188 C398.08750913 317.87836802 397.86151758 319.61921022 397.64599609 321.36132812 C396.46045141 330.50206291 394.95054481 339.47908301 392.82177734 348.45117188 C392.51953247 349.73036499 392.51953247 349.73036499 392.21118164 351.03540039 C390.92801007 356.23968877 389.27563655 361.15382594 387.32177734 366.13867188 C386.61177721 368.04251524 385.90500008 369.94756231 385.20068359 371.85351562 C384.42859894 373.92775327 383.65646251 376.00197165 382.88427734 378.07617188 C382.50207031 379.10935547 382.11986328 380.14253906 381.72607422 381.20703125 C378.48363413 389.89941308 374.92321427 398.28888288 370.50927734 406.45117188 C369.99651245 407.40612549 369.99651245 407.40612549 369.47338867 408.38037109 C366.23003648 414.38203227 362.81723306 420.28046508 359.32177734 426.13867188 C358.80228516 427.07453125 358.28279297 428.01039063 357.74755859 428.97460938 C357.27705078 429.68875 356.80654297 430.40289063 356.32177734 431.13867188 C355.66177734 431.13867188 355.00177734 431.13867188 354.32177734 431.13867188 C354.19802734 431.73679687 354.07427734 432.33492187 353.94677734 432.95117188 C353.32177734 435.13867188 353.32177734 435.13867188 351.32177734 438.13867188 C350.66177734 438.13867188 350.00177734 438.13867188 349.32177734 438.13867188 C349.03302734 438.88117188 348.74427734 439.62367188 348.44677734 440.38867188 C346.58545345 444.93857473 344.8709535 447.69388325 341.32177734 451.13867188 C339.98282102 452.80082455 338.65047592 454.46830795 337.32177734 456.13867188 C336.1447555 457.56405613 334.95648145 458.98019645 333.75927734 460.38867188 C332.89109375 461.41734375 332.89109375 461.41734375 332.00537109 462.46679688 C330.32177734 464.13867188 330.32177734 464.13867188 327.32177734 465.13867188 C327.01240234 465.77804687 326.70302734 466.41742187 326.38427734 467.07617188 C325.06393516 469.63918905 323.84030995 469.87940557 321.32177734 471.13867188 C320.99177734 471.79867188 320.66177734 472.45867187 320.32177734 473.13867188 C319.0575497 475.66712716 317.79332206 475.90289952 315.32177734 477.13867188 C314.05373168 479.17226668 314.05373168 479.17226668 313.32177734 481.13867188 C312.66177734 481.13867188 312.00177734 481.13867188 311.32177734 481.13867188 C311.09490234 481.75742187 310.86802734 482.37617187 310.63427734 483.01367188 C308.93314776 485.76788167 307.26801581 485.96017649 304.32177734 487.13867188 C303.63807285 488.46334934 302.97213549 489.7973082 302.32177734 491.13867188 C300.6784423 492.17656769 299.00933868 493.17435111 297.32177734 494.13867188 C296.71333984 494.75226563 296.10490234 495.36585938 295.47802734 495.99804688 C293.19627668 498.26326311 290.83083563 500.04876251 288.19677734 501.88867188 C287.32794922 502.50226563 286.45912109 503.11585938 285.56396484 503.74804688 C283.32177734 505.13867188 283.32177734 505.13867188 281.32177734 505.13867188 C281.32177734 505.79867188 281.32177734 506.45867187 281.32177734 507.13867188 C277.34065183 510.09899597 273.0545296 512.45994945 268.70458984 514.83398438 C267.06637571 515.73097375 265.4365224 516.64334993 263.81396484 517.56835938 C263.01216797 518.0246875 262.21037109 518.48101563 261.38427734 518.95117188 C260.28792969 519.57958984 260.28792969 519.57958984 259.16943359 520.22070312 C257.32177734 521.13867188 257.32177734 521.13867188 255.32177734 521.13867188 C255.32177734 521.79867187 255.32177734 522.45867188 255.32177734 523.13867188 C254.54833984 523.45320312 253.77490234 523.76773438 252.97802734 524.09179688 C248.15745345 526.07252773 243.38280206 528.04002534 238.75927734 530.45117188 C235.32177734 532.13867188 235.32177734 532.13867188 232.32177734 532.13867188 C232.32177734 532.79867187 232.32177734 533.45867188 232.32177734 534.13867188 C230.42928916 534.81477611 228.53261715 535.47917626 226.63427734 536.13867188 C225.57853516 536.50992188 224.52279297 536.88117187 223.43505859 537.26367188 C220.53815678 538.07785758 218.30477112 538.31576984 215.32177734 538.13867188 C215.32177734 538.79867187 215.32177734 539.45867188 215.32177734 540.13867188 C214.17902344 540.41130859 214.17902344 540.41130859 213.01318359 540.68945312 C205.99232144 542.39204248 205.99232144 542.39204248 199.13427734 544.63867188 C194.08590895 546.4046762 188.8760187 547.19653973 183.61206055 548.04882812 C182.91685303 548.16226563 182.22164551 548.27570312 181.50537109 548.39257812 C180.58582642 548.53675171 180.58582642 548.53675171 179.64770508 548.68383789 C177.63244355 549.07792126 175.64033844 549.58708545 173.65625 550.11621094 C169.06466168 551.27604273 164.496585 551.81318318 159.78662109 552.24414062 C158.42620949 552.36996773 158.42620949 552.36996773 157.03831482 552.49833679 C147.31824696 553.3261144 137.61630739 553.47593071 127.86547852 553.4543457 C124.88895238 553.45117685 121.91341705 553.47481146 118.93701172 553.5 C101.07215929 553.55784537 83.62784789 551.6401161 66.32177734 547.13867188 C65.24154297 546.87957031 64.16130859 546.62046875 63.04833984 546.35351562 C58.30143975 545.209892 53.84996552 543.96890574 49.32177734 542.13867188 C47.89220535 541.73449969 46.45474853 541.35666504 45.00927734 541.01367188 C43.79240234 540.72492187 42.57552734 540.43617188 41.32177734 540.13867188 C41.32177734 539.47867188 41.32177734 538.81867187 41.32177734 538.13867188 C40.35240234 538.03554688 39.38302734 537.93242188 38.38427734 537.82617188 C33.83583895 537.19237308 29.62760631 535.69111361 25.32177734 534.13867188 C25.32177734 533.47867188 25.32177734 532.81867187 25.32177734 532.13867188 C24.08814453 532.00332031 24.08814453 532.00332031 22.82958984 531.86523438 C18.5862184 530.9863178 15.07844978 529.39556207 11.19677734 527.51367188 C10.07517212 526.97734131 10.07517212 526.97734131 8.9309082 526.43017578 C2.52566792 523.3247296 -3.6016971 519.84473331 -9.67822266 516.13867188 C-10.49162109 515.67074219 -11.30501953 515.2028125 -12.14306641 514.72070312 C-19.0626167 510.71700871 -25.50528639 506.10151543 -31.94921875 501.38427734 C-33.17439726 500.50163674 -34.41325844 499.63784843 -35.66113281 498.78759766 C-37.36648011 497.61798399 -39.02667778 496.38310149 -40.67822266 495.13867188 C-40.67822266 494.47867187 -40.67822266 493.81867188 -40.67822266 493.13867188 C-41.85384766 492.76742187 -41.85384766 492.76742187 -43.05322266 492.38867188 C-46.14316253 490.91727194 -46.21481493 490.06548733 -47.67822266 487.13867188 C-50.21592268 485.85612544 -50.21592268 485.85612544 -52.67822266 485.13867188 C-52.67822266 484.47867187 -52.67822266 483.81867188 -52.67822266 483.13867188 C-53.25419189 482.88649902 -53.83016113 482.63432617 -54.42358398 482.37451172 C-58.7253845 480.01655674 -61.92839541 476.21533326 -65.36572266 472.76367188 C-66.15011719 471.99539063 -66.93451172 471.22710938 -67.74267578 470.43554688 C-68.48839844 469.69046875 -69.23412109 468.94539063 -70.00244141 468.17773438 C-70.68395264 467.4992041 -71.36546387 466.82067383 -72.06762695 466.12158203 C-73.75333865 464.04619165 -74.12670876 462.70047631 -74.67822266 460.13867188 C-76.59488932 458.97200521 -76.59488932 458.97200521 -78.67822266 458.13867188 C-79.33822266 457.47867187 -79.99822266 456.81867188 -80.67822266 456.13867188 C-80.67822266 455.14867187 -80.67822266 454.15867187 -80.67822266 453.13867188 C-81.66822266 452.80867188 -82.65822266 452.47867187 -83.67822266 452.13867188 C-84.71611847 450.49533683 -85.7139019 448.82623321 -86.67822266 447.13867188 C-88.10748812 445.59030096 -89.59354347 444.21276616 -91.17822266 442.82617188 C-93.58696819 440.11633315 -95.67822266 436.83085306 -95.67822266 433.13867188 C-96.66822266 432.80867188 -97.65822266 432.47867187 -98.67822266 432.13867188 C-98.67822266 431.14867187 -98.67822266 430.15867187 -98.67822266 429.13867188 C-99.33822266 429.13867188 -99.99822266 429.13867188 -100.67822266 429.13867188 C-101.00822266 427.48867188 -101.33822266 425.83867188 -101.67822266 424.13867188 C-102.33822266 424.13867188 -102.99822266 424.13867188 -103.67822266 424.13867188 C-104.34977199 422.849537 -105.01531125 421.55726984 -105.67822266 420.26367188 C-106.04947266 419.544375 -106.42072266 418.82507813 -106.80322266 418.08398438 C-107.67822266 416.13867188 -107.67822266 416.13867188 -107.67822266 414.13867188 C-108.33822266 414.13867188 -108.99822266 414.13867188 -109.67822266 414.13867188 C-110.35490264 412.89406405 -111.01916985 411.64270291 -111.67822266 410.38867188 C-112.04947266 409.69257812 -112.42072266 408.99648438 -112.80322266 408.27929688 C-113.67822266 406.13867188 -113.67822266 406.13867188 -113.67822266 402.13867188 C-114.33822266 402.13867188 -114.99822266 402.13867188 -115.67822266 402.13867188 C-123.67822266 386.99581473 -123.67822266 386.99581473 -123.67822266 380.13867188 C-124.33822266 380.13867188 -124.99822266 380.13867188 -125.67822266 380.13867188 C-128.50390585 371.22155687 -131.25526823 362.29652102 -133.77587891 353.28710938 C-134.5379074 350.62825671 -135.37578874 348.01484428 -136.24072266 345.38867188 C-139.4354117 334.80953767 -140.81760346 323.42201119 -141.46728516 312.42382812 C-141.6057168 309.97670775 -141.6057168 309.97670775 -142.67822266 307.13867188 C-143.63113204 298.04485763 -143.77763082 288.89995778 -143.80322266 279.76367188 C-143.80781494 278.86156982 -143.81240723 277.95946777 -143.81713867 277.0300293 C-143.80335525 271.01218904 -143.38434559 265.11417691 -142.67822266 259.13867188 C-142.01822266 259.13867188 -141.35822266 259.13867188 -140.67822266 259.13867188 C-140.71560547 258.17832031 -140.75298828 257.21796875 -140.79150391 256.22851562 C-140.78800057 251.58426593 -139.85333456 247.22263876 -138.86572266 242.70117188 C-138.70007813 241.89357422 -138.53443359 241.08597656 -138.36376953 240.25390625 C-137.40715357 235.77405565 -136.19170133 231.58290241 -134.51049805 227.32495117 C-133.52205124 224.72842985 -132.66503568 222.10275427 -131.81103516 219.45898438 C-131.48232422 218.44707031 -131.15361328 217.43515625 -130.81494141 216.39257812 C-130.14348698 214.31599513 -129.47677342 212.23787289 -128.81494141 210.15820312 C-126.89821437 204.2886927 -124.66766433 198.87518483 -121.81152344 193.40283203 C-120.23895735 190.26108754 -119.15532316 187.0999625 -118.05322266 183.76367188 C-116.68208791 179.61345866 -115.36881966 176.55782195 -112.67822266 173.13867188 C-111.7069434 171.02591124 -111.7069434 171.02591124 -110.99072266 168.88867188 C-110.55759766 167.65117188 -110.12447266 166.41367187 -109.67822266 165.13867188 C-109.01822266 165.13867188 -108.35822266 165.13867188 -107.67822266 165.13867188 C-107.52353516 164.11773438 -107.52353516 164.11773438 -107.36572266 163.07617188 C-106.53097247 159.50951199 -105.18349511 156.47644993 -103.67822266 153.13867188 C-103.01822266 153.13867188 -102.35822266 153.13867188 -101.67822266 153.13867188 C-101.47326172 152.5121875 -101.26830078 151.88570312 -101.05712891 151.24023438 C-100.78771484 150.42296875 -100.51830078 149.60570312 -100.24072266 148.76367188 C-99.97388672 147.9515625 -99.70705078 147.13945313 -99.43212891 146.30273438 C-98.67822266 144.13867188 -98.67822266 144.13867188 -97.67822266 142.13867188 C-97.01822266 142.13867188 -96.35822266 142.13867188 -95.67822266 142.13867188 C-95.55833984 141.40003906 -95.43845703 140.66140625 -95.31494141 139.90039062 C-94.69093605 137.19381523 -93.87548748 135.33977916 -92.49072266 132.95117188 C-92.04857422 132.18160156 -91.60642578 131.41203125 -91.15087891 130.61914062 C-89.09916992 127.16334433 -87.02013619 123.72476859 -84.91259766 120.30273438 C-83.54839645 118.07478205 -83.54839645 118.07478205 -82.67822266 115.13867188 C-82.01822266 115.13867188 -81.35822266 115.13867188 -80.67822266 115.13867188 C-80.24509766 113.77742188 -80.24509766 113.77742188 -79.80322266 112.38867188 C-78.9129049 109.8166428 -77.96327853 107.52520421 -76.67822266 105.13867188 C-76.01822266 105.13867188 -75.35822266 105.13867188 -74.67822266 105.13867188 C-74.38947266 104.23117187 -74.10072266 103.32367188 -73.80322266 102.38867188 C-72.9129049 99.8166428 -71.96327853 97.52520421 -70.67822266 95.13867188 C-70.01822266 95.13867188 -69.35822266 95.13867188 -68.67822266 95.13867188 C-68.36884766 93.93210937 -68.36884766 93.93210937 -68.05322266 92.70117188 C-66.57546007 88.87242337 -64.66419679 85.94753662 -62.33447266 82.59570312 C-60.02768555 79.17360622 -58.00776903 75.59972555 -55.97509766 72.00976562 C-55.54712891 71.39230469 -55.11916016 70.77484375 -54.67822266 70.13867188 C-54.01822266 70.13867188 -53.35822266 70.13867188 -52.67822266 70.13867188 C-52.57509766 69.58179688 -52.47197266 69.02492188 -52.36572266 68.45117188 C-51.53643857 65.66176177 -50.3352321 63.52476547 -48.67822266 61.13867188 C-48.01822266 61.13867188 -47.35822266 61.13867188 -46.67822266 61.13867188 C-46.47197266 60.31367188 -46.26572266 59.48867188 -46.05322266 58.63867188 C-44.54676587 54.80405459 -42.58430714 52.15183773 -40.01806641 48.97070312 C-38.48672092 47.0721262 -38.48672092 47.0721262 -37.67822266 44.13867188 C-36.67822266 43.13867188 -35.67822266 42.13867188 -34.67822266 41.13867188 C-34.16259766 40.25179687 -33.64697266 39.36492187 -33.11572266 38.45117188 C-32.64134766 37.68804687 -32.16697266 36.92492187 -31.67822266 36.13867188 C-31.01822266 36.13867188 -30.35822266 36.13867188 -29.67822266 36.13867188 C-29.30697266 34.80835938 -29.30697266 34.80835938 -28.92822266 33.45117188 C-27.62683842 30.00250366 -26.03397146 27.93612358 -23.67822266 25.13867188 C-22.96936371 23.82728283 -22.28365814 22.5009017 -21.67822266 21.13867188 C-21.01822266 21.13867188 -20.35822266 21.13867188 -19.67822266 21.13867188 C-19.29150391 20.06552734 -19.29150391 20.06552734 -18.89697266 18.97070312 C-17.60437501 15.96707076 -16.05045176 13.50361816 -14.17822266 10.82617188 C-13.56978516 9.94316406 -12.96134766 9.06015625 -12.33447266 8.15039062 C-11.78791016 7.48652344 -11.24134766 6.82265625 -10.67822266 6.13867188 C-10.01822266 6.13867188 -9.35822266 6.13867188 -8.67822266 6.13867188 C-8.36884766 5.33429688 -8.05947266 4.52992188 -7.74072266 3.70117188 C-5.94539445 -0.62873733 -4.52986941 0.01203419 0 0 Z M-37.67822266 181.13867188 C-38.33822266 181.79867187 -38.99822266 182.45867187 -39.67822266 183.13867188 C-39.88241554 185.80798226 -39.96064822 188.37440875 -39.95237732 191.04547119 C-39.957614 191.87190778 -39.96285068 192.69834436 -39.96824604 193.54982448 C-39.98331661 196.3350223 -39.98395274 199.12003755 -39.98461914 201.90527344 C-39.99223601 203.89581108 -40.00066268 205.88634578 -40.00984192 207.87687683 C-40.03184325 213.29641553 -40.04059362 218.71589779 -40.04566836 224.13547611 C-40.04930595 227.51957181 -40.05554294 230.90365259 -40.06266975 234.28774261 C-40.08718591 246.08880771 -40.10022037 257.88982872 -40.10375977 269.69091797 C-40.10739449 280.69838719 -40.13727995 291.70557747 -40.17916435 302.71296144 C-40.21383865 312.15591461 -40.22930773 321.59877525 -40.2300058 331.04179168 C-40.23079973 336.68486083 -40.23959136 342.32764622 -40.26800346 347.97064972 C-40.29413423 353.2796347 -40.29641705 358.58809972 -40.28034782 363.89711952 C-40.27852923 365.84580682 -40.2852609 367.79452366 -40.30116653 369.7431469 C-40.32156154 372.40402869 -40.31111461 375.06308012 -40.29295349 377.72393799 C-40.30615346 378.4949592 -40.31935343 379.26598042 -40.33295339 380.06036592 C-40.27189868 383.97752181 -39.7311479 386.56308958 -37.32730198 389.60209274 C-33.60917429 393.16232027 -30.75218784 393.42661812 -25.67822266 393.36132812 C-22.76098493 393.03655752 -20.95370963 391.94567624 -18.67822266 390.13867188 C-13.17230602 381.87979692 -15.55029782 368.32531055 -15.58056641 358.66210938 C-15.58203962 357.08374059 -15.58305799 355.50537132 -15.58361816 353.92700195 C-15.58882711 348.12255107 -15.60278829 342.31811069 -15.61572266 336.51367188 C-15.64666016 317.02304687 -15.64666016 317.02304687 -15.67822266 297.13867188 C12.04177734 297.13867188 39.76177734 297.13867188 68.32177734 297.13867188 C68.19677734 335.82617187 68.19677734 335.82617187 68.14160156 347.96557617 C68.13490576 351.60977765 68.13490576 351.60977765 68.13088989 355.25398254 C68.12785264 356.85592262 68.1208905 358.45785861 68.11062622 360.05976868 C67.05737305 376.31304361 67.05737305 376.31304361 71.70773315 390.92167664 C74.4567023 392.99440946 76.99648058 393.2762677 80.32177734 393.26367188 C81.00240234 393.26625 81.68302734 393.26882813 82.38427734 393.27148438 C85.10912748 393.08470029 86.92636738 392.47550258 89.00927734 390.70117188 C90.53617471 389.2235375 90.53617471 389.2235375 90.32177734 387.13867188 C90.98177734 387.13867188 91.64177734 387.13867188 92.32177734 387.13867188 C92.41523302 361.20011219 92.48576269 335.26157776 92.52902603 309.32288361 C92.54964819 297.27900056 92.57776233 285.23522214 92.62353516 273.19140625 C92.66341332 262.69359374 92.68921267 252.19585702 92.69813132 241.69797087 C92.70334436 236.13978411 92.71559001 230.58181415 92.74469757 225.0236969 C92.77188196 219.79032465 92.78021613 214.55725817 92.77420807 209.32382202 C92.77530694 207.40499713 92.7832427 205.48616183 92.79859924 203.56739807 C92.81857459 200.94238641 92.81368927 198.31852101 92.80279541 195.69348145 C92.82027246 194.56115105 92.82027246 194.56115105 92.83810258 193.4059453 C92.77473104 187.73568719 91.12081193 184.06246687 88.32177734 179.13867188 C87.66177734 179.13867188 87.00177734 179.13867188 86.32177734 179.13867188 C86.32177734 178.47867188 86.32177734 177.81867188 86.32177734 177.13867188 C82.83072992 175.39314816 79.13104745 175.57848509 75.32177734 176.13867188 C70.5998076 179.25316255 69.78305783 182.48787823 68.70978165 187.70922661 C68.11790759 191.41517938 68.0585523 195.03358132 68.09472656 198.77954102 C68.09436496 200.01523535 68.09436496 200.01523535 68.09399605 201.27589321 C68.09547355 203.90865306 68.11063355 206.5411198 68.12646484 209.17382812 C68.12941014 210.81278345 68.13144758 212.45174066 68.13256836 214.09069824 C68.14299933 220.12755172 68.17092182 226.16436476 68.19677734 232.20117188 C68.23802734 245.71054687 68.27927734 259.21992187 68.32177734 273.13867188 C27.23677734 272.64367187 27.23677734 272.64367187 -14.67822266 272.13867188 C-15.11572266 232.82617188 -15.11572266 232.82617188 -15.24633789 220.47338867 C-15.28965268 216.77725292 -15.28965268 216.77725292 -15.3341217 213.08113098 C-15.35317741 211.4516323 -15.37053699 209.82211319 -15.38648987 208.19258118 C-14.19104166 192.01843046 -14.19104166 192.01843046 -19.11572266 177.95117188 C-26.32414458 174.28372914 -32.56435281 174.42671771 -37.67822266 181.13867188 Z M214.32177734 177.13867188 C214.32177734 177.79867187 214.32177734 178.45867187 214.32177734 179.13867188 C213.33177734 179.24179687 212.34177734 179.34492187 211.32177734 179.45117188 C207.03880572 180.04675893 203.32181364 181.52462214 199.32177734 183.13867188 C199.32177734 183.79867187 199.32177734 184.45867187 199.32177734 185.13867188 C198.76876953 185.22375 198.21576172 185.30882812 197.64599609 185.39648438 C194.58899656 186.3726691 192.62692792 188.00335103 190.13427734 190.01367188 C189.25384766 190.71234375 188.37341797 191.41101563 187.46630859 192.13085938 C185.09186974 194.03438627 185.09186974 194.03438627 184.32177734 197.13867188 C183.70818359 197.43773437 183.09458984 197.73679687 182.46240234 198.04492188 C179.72158368 199.44534017 178.72552715 201.06617217 177.07177734 203.63867188 C176.55099609 204.43273437 176.03021484 205.22679687 175.49365234 206.04492188 C174.15897566 208.02964562 174.15897566 208.02964562 174.32177734 210.13867188 C173.66177734 210.13867188 173.00177734 210.13867188 172.32177734 210.13867188 C171.33492853 212.51073049 170.35720184 214.88590675 169.38427734 217.26367188 C169.10648438 217.92882812 168.82869141 218.59398437 168.54248047 219.27929688 C168.275 219.93671875 168.00751953 220.59414063 167.73193359 221.27148438 C167.48580322 221.86848145 167.23967285 222.46547852 166.98608398 223.08056641 C165.03533385 229.12423552 165.17357042 235.23884627 165.17651367 241.51513672 C165.17315506 242.54679459 165.16979645 243.57845245 165.16633606 244.64137268 C165.15685468 248.04413057 165.15488441 251.44683911 165.15380859 254.84960938 C165.15059424 257.22083557 165.14723004 259.59206157 165.14372253 261.96328735 C165.13773844 266.93125875 165.13588192 271.89921276 165.13647461 276.8671875 C165.13657623 283.22460138 165.12292057 289.58190358 165.1057024 295.939291 C165.09457 300.83613596 165.09255578 305.73295402 165.09308434 310.62981033 C165.09190623 312.97329722 165.08749396 315.31678485 165.07975197 317.66025925 C165.06992648 320.94139121 165.07284027 324.22228191 165.07885742 327.50341797 C165.07323792 328.46575851 165.06761841 329.42809906 165.06182861 330.41960144 C165.1001729 338.6711722 166.89965794 345.44068601 169.94677734 353.13867188 C170.61580078 354.84023438 170.61580078 354.84023438 171.29833984 356.57617188 C171.63607422 357.42179688 171.97380859 358.26742187 172.32177734 359.13867188 C172.98177734 359.13867188 173.64177734 359.13867188 174.32177734 359.13867188 C174.61052734 360.06679688 174.89927734 360.99492188 175.19677734 361.95117188 C176.20927734 365.23658854 176.20927734 365.23658854 178.32177734 368.13867188 C178.98177734 368.13867188 179.64177734 368.13867188 180.32177734 368.13867188 C180.98177734 369.45867187 181.64177734 370.77867187 182.32177734 372.13867188 C182.98177734 372.13867188 183.64177734 372.13867188 184.32177734 372.13867188 C184.56927734 372.75742187 184.81677734 373.37617187 185.07177734 374.01367188 C186.52806374 376.48935874 187.69990241 377.0899219 190.32177734 378.13867188 C190.32177734 378.79867187 190.32177734 379.45867187 190.32177734 380.13867188 C191.43552734 380.79867187 192.54927734 381.45867187 193.69677734 382.13867188 C194.63650391 382.69554687 194.63650391 382.69554687 195.59521484 383.26367188 C197.29650402 384.28935535 197.29650402 384.28935535 199.32177734 384.13867188 C199.32177734 384.79867187 199.32177734 385.45867187 199.32177734 386.13867188 C201.50824039 386.93319797 203.69599955 387.72415768 205.88427734 388.51367188 C207.71152344 389.17496094 207.71152344 389.17496094 209.57568359 389.84960938 C210.81189453 390.275 212.04810547 390.70039062 213.32177734 391.13867188 C214.41361328 391.51765625 215.50544922 391.89664063 216.63037109 392.28710938 C221.41600427 393.39109671 225.92841832 393.43019967 230.82177734 393.38867188 C231.73314453 393.39640625 232.64451172 393.40414062 233.58349609 393.41210938 C238.86829143 393.39685744 243.27408049 392.86270918 248.32177734 391.13867188 C249.60757611 390.74199633 250.8940608 390.34753869 252.18115234 389.95507812 C253.47854287 389.53871235 254.77541736 389.12073527 256.07177734 388.70117188 C256.73048828 388.49685547 257.38919922 388.29253906 258.06787109 388.08203125 C261.55227381 386.94765674 263.95290727 385.95839141 266.32177734 383.13867188 C267.62115234 382.33429688 267.62115234 382.33429688 268.94677734 381.51367188 C281.85159752 373.05989389 291.76398779 358.03498206 295.32177734 343.13867188 C295.65065749 340.14171298 295.78066732 337.15094373 295.88427734 334.13867188 C295.94506933 332.59688358 296.00883121 331.05520928 296.07568359 329.51367188 C296.11157593 328.50433594 296.11157593 328.50433594 296.14819336 327.47460938 C296.32177734 325.13867187 296.32177734 325.13867187 296.82453918 321.91207886 C297.29228377 318.36249068 297.44865318 315.00492326 297.45117188 311.42822266 C297.45432404 310.13643097 297.4574762 308.84463928 297.46072388 307.51370239 C297.45893338 306.1204627 297.45688224 304.72722333 297.45458984 303.33398438 C297.45526466 301.88581323 297.45623617 300.4376422 297.45748901 298.98947144 C297.45895854 295.96188269 297.45683608 292.93432357 297.45214844 289.90673828 C297.44646186 286.04818922 297.44972811 282.1897099 297.4557209 278.33116341 C297.45935543 275.342107 297.45817453 272.35306679 297.45559311 269.36400986 C297.45493129 267.94241197 297.45572588 266.52081256 297.45807266 265.09921646 C297.4676196 257.68957246 297.29935147 250.48503742 296.32177734 243.13867188 C296.17877411 241.42083992 296.04500515 239.70216876 295.92724609 237.98242188 C295.82379883 236.66564453 295.82379883 236.66564453 295.71826172 235.32226562 C295.57900649 233.53407228 295.45138606 231.74493457 295.33544922 229.95507812 C294.26696384 217.07651989 287.14929286 205.3674381 278.32177734 196.13867188 C277.66177734 196.13867188 277.00177734 196.13867188 276.32177734 196.13867188 C276.11552734 195.58179688 275.90927734 195.02492188 275.69677734 194.45117188 C272.86697926 189.69196601 268.52205986 186.82111622 263.32177734 185.13867188 C263.32177734 184.47867188 263.32177734 183.81867188 263.32177734 183.13867188 C260.96824625 182.34507452 258.61398852 181.55375404 256.25927734 180.76367188 C255.6025 180.54195312 254.94572266 180.32023438 254.26904297 180.09179688 C252.93497587 179.64491726 251.59855502 179.20501018 250.26000977 178.77172852 C248.51676445 178.20235767 246.78551433 177.5965695 245.05615234 176.98632812 C239.88608885 175.81278861 234.91675093 175.88776884 229.63427734 175.95117188 C228.60238281 175.95181641 227.57048828 175.95246094 226.50732422 175.953125 C220.34201397 175.96202425 220.34201397 175.96202425 214.32177734 177.13867188 Z M348.32177734 353.13867188 C345.91193473 357.38279098 345.91193473 357.38279098 345.32177734 362.13867188 C344.66177734 362.13867188 344.00177734 362.13867188 343.32177734 362.13867188 C342.9021875 363.42837891 342.9021875 363.42837891 342.47412109 364.74414062 C339.88435227 372.3802114 336.90354828 379.19386386 332.87255859 386.20117188 C331.32766 389.1275289 330.27710993 391.97619159 329.32177734 395.13867188 C328.66177734 395.13867188 328.00177734 395.13867188 327.32177734 395.13867188 C326.95439453 395.85216797 326.95439453 395.85216797 326.57958984 396.58007812 C313.98124454 420.16939364 295.72161901 441.57494858 274.76708984 458.13085938 C272.29759734 460.09181232 272.29759734 460.09181232 270.14208984 462.31835938 C268.30280426 464.15764496 266.69690879 465.1207584 264.32177734 466.13867188 C264.32177734 466.79867187 264.32177734 467.45867187 264.32177734 468.13867188 C262.34177734 468.63367188 262.34177734 468.63367188 260.32177734 469.13867188 C260.32177734 469.79867187 260.32177734 470.45867187 260.32177734 471.13867188 C258.83677734 471.63367188 258.83677734 471.63367188 257.32177734 472.13867188 C257.32177734 472.79867187 257.32177734 473.45867187 257.32177734 474.13867188 C256.39365234 474.50992188 256.39365234 474.50992188 255.44677734 474.88867188 C252.79642834 476.4477007 252.17802848 477.18071341 251.32177734 480.13867188 C251.46081629 484.5183988 251.83694841 487.18921521 253.82177734 491.07617188 C257.42072757 494.04530581 260.73349489 494.31301076 265.32177734 494.13867188 C268.75003418 493.33372017 268.75003418 493.33372017 271.32177734 492.13867188 C271.32177734 491.47867188 271.32177734 490.81867188 271.32177734 490.13867188 C272.15708984 489.98398437 272.15708984 489.98398437 273.00927734 489.82617188 C275.79868745 488.99688779 277.93568375 487.79568132 280.32177734 486.13867188 C280.32177734 485.47867188 280.32177734 484.81867188 280.32177734 484.13867188 C282.98844401 482.80533854 285.65511068 481.47200521 288.32177734 480.13867188 C288.32177734 479.47867188 288.32177734 478.81867188 288.32177734 478.13867188 C289.12421875 477.81189453 289.12421875 477.81189453 289.94287109 477.47851562 C293.1685087 475.6617772 295.70884306 473.22548081 298.38427734 470.70117188 C298.95283447 470.16911133 299.5213916 469.63705078 300.10717773 469.08886719 C301.85310678 467.44672649 303.58944671 465.79514487 305.32177734 464.13867188 C305.84352539 463.64028809 306.36527344 463.1419043 306.90283203 462.62841797 C312.06844421 457.66225675 316.90745771 452.72061369 321.04052734 446.85742188 C322.31109084 445.15300743 323.66181859 443.73041024 325.19677734 442.26367188 C325.89802734 441.56242187 326.59927734 440.86117187 327.32177734 440.13867188 C327.32177734 439.47867188 327.32177734 438.81867188 327.32177734 438.13867188 C327.98177734 438.13867188 328.64177734 438.13867188 329.32177734 438.13867188 C330.61311573 436.37907785 330.61311573 436.37907785 331.82177734 434.20117188 C334.11085923 430.24413093 334.11085923 430.24413093 336.32177734 429.13867188 C337.4411345 427.55883181 337.4411345 427.55883181 338.44677734 425.70117188 C338.79998047 425.08371094 339.15318359 424.46625 339.51708984 423.83007812 C340.46498059 422.14984469 340.46498059 422.14984469 340.32177734 420.13867188 C340.98177734 420.13867188 341.64177734 420.13867188 342.32177734 420.13867188 C342.58990234 419.65140625 342.85802734 419.16414063 343.13427734 418.66210938 C343.52615234 417.953125 343.91802734 417.24414062 344.32177734 416.51367188 C344.99466797 415.29550781 344.99466797 415.29550781 345.68115234 414.05273438 C346.90037518 411.88716239 348.13828842 409.74021661 349.39990234 407.59960938 C349.75826172 406.98682129 350.11662109 406.3740332 350.48583984 405.74267578 C351.19882235 404.52541203 351.91740909 403.31141009 352.64208984 402.10107422 C354.56841587 398.79813439 355.83550204 395.94306103 356.32177734 392.13867188 C356.98177734 392.13867188 357.64177734 392.13867188 358.32177734 392.13867188 C358.82793032 390.87027662 359.32646833 389.59884086 359.82177734 388.32617188 C360.10021484 387.61847656 360.37865234 386.91078125 360.66552734 386.18164062 C361.47469354 384.02025972 361.47469354 384.02025972 361.32177734 381.13867188 C361.98177734 381.13867188 362.64177734 381.13867188 363.32177734 381.13867188 C366.4447346 373.27551164 368.74624279 365.65979854 367.32177734 357.13867188 C365.50200744 354.04028813 364.79433523 353.29619117 361.32177734 352.13867188 C359.46950482 352.04509496 357.61390554 352.00873279 355.75927734 352.01367188 C354.30328125 352.00980469 354.30328125 352.00980469 352.81787109 352.00585938 C350.32224781 351.97216235 350.32224781 351.97216235 348.32177734 353.13867188 Z M117.32177734 359.13867188 C117.32177734 359.79867188 117.32177734 360.45867187 117.32177734 361.13867188 C116.00177734 361.46867187 114.68177734 361.79867188 113.32177734 362.13867188 C113.32177734 362.79867188 113.32177734 363.45867187 113.32177734 364.13867188 C112.44005859 364.26242187 112.44005859 364.26242187 111.54052734 364.38867188 C106.03015574 366.2513327 102.43239848 373.49095031 99.88427734 378.45117188 C97.68482411 383.86887269 97.47508692 389.38788347 98.32177734 395.13867188 C100.36408401 398.65989027 101.9500425 399.89084865 105.32177734 402.13867188 C110.00557377 402.98621599 113.45105403 402.61510538 117.63427734 400.32617188 C120.96334586 397.12620851 122.11398861 392.97939897 123.46240234 388.66210938 C124.32177734 386.13867188 124.32177734 386.13867188 126.32177734 383.13867188 C130.64752091 381.69675735 134.80094313 381.58934227 139.32177734 382.13867188 C142.19327052 384.22050443 143.34962381 386.18044158 145.32177734 389.13867188 C145.82448185 392.90895568 145.55233579 394.7279383 143.67724609 398.06835938 C141.13913658 401.37674094 138.7616099 403.21610215 135.25927734 405.45117188 C134.21642578 406.12792969 133.17357422 406.8046875 132.09912109 407.50195312 C129.32177734 409.13867188 129.32177734 409.13867188 126.32177734 410.13867188 C125.30236545 411.11887562 124.30460318 412.12178772 123.32177734 413.13867188 C121.91373877 414.19197205 120.49623427 415.23268382 119.07177734 416.26367188 C114.32050041 419.91072406 110.53120847 424.07169218 107.32177734 429.13867188 C107.32177734 429.79867187 107.32177734 430.45867187 107.32177734 431.13867188 C106.66177734 431.13867188 106.00177734 431.13867188 105.32177734 431.13867188 C102.02398994 437.90297069 99.48371485 443.80961561 101.00927734 451.45117188 C101.89215013 455.13010429 101.89215013 455.13010429 104.1546936 456.30096436 C114.96655686 460.48039637 126.86225527 459.72601572 138.26025391 459.83886719 C140.72189977 459.87212386 143.18334719 459.926886 145.64404297 460.00292969 C149.217312 460.11250994 152.78611755 460.15618429 156.36083984 460.18554688 C157.45578766 460.23088562 158.55073547 460.27622437 159.67886353 460.32293701 C164.27833517 460.29752085 167.14298534 460.19339188 170.65350342 457.05236816 C174.46670743 452.07345439 174.46670743 452.07345439 175.12661743 446.01385498 C174.0200955 442.06095401 172.27565069 439.96126196 169.32177734 437.13867188 C165.31836194 436.21101714 161.36544387 435.97014438 157.26708984 435.82226562 C156.15849609 435.78037109 155.04990234 435.73847656 153.90771484 435.6953125 C152.76560547 435.65599609 151.62349609 435.61667969 150.44677734 435.57617188 C149.28146484 435.53298828 148.11615234 435.48980469 146.91552734 435.4453125 C144.0510511 435.33965559 141.18649413 435.23755389 138.32177734 435.13867188 C138.81677734 433.65367187 138.81677734 433.65367187 139.32177734 432.13867188 C139.98177734 431.80867188 140.64177734 431.47867188 141.32177734 431.13867188 C141.32177734 430.47867188 141.32177734 429.81867188 141.32177734 429.13867188 C142.10552734 428.95304687 142.88927734 428.76742187 143.69677734 428.57617188 C148.75229665 426.57139698 153.15300054 423.63187615 157.32177734 420.13867188 C157.32177734 419.47867188 157.32177734 418.81867188 157.32177734 418.13867188 C158.31177734 417.80867188 159.30177734 417.47867188 160.32177734 417.13867188 C166.52757282 411.96717565 169.3075642 403.98046981 170.07177734 396.20117188 C170.57062297 387.67834136 169.48392369 381.61482909 165.32177734 374.13867188 C164.99177734 373.4503125 164.66177734 372.76195312 164.32177734 372.05273438 C160.92098912 365.54341317 153.3352923 360.70892298 146.64599609 358.09179688 C136.16303683 354.94839183 127.64725906 355.84079939 117.32177734 359.13867188 Z " fill="#92E6F8" transform="translate(367.67822265625,367.861328125)"/>
<path d="M0 0 C3.92488093 3.70060202 7.02215543 7.4906925 10 12 C10 12.66 10 13.32 10 14 C10.99 14.33 11.98 14.66 13 15 C14.75390625 17.109375 14.75390625 17.109375 16.5625 19.75 C17.16191406 20.61109375 17.76132812 21.4721875 18.37890625 22.359375 C19.91118064 24.85532075 21.00643587 27.25163355 22 30 C22.66 30 23.32 30 24 30 C25.4375 31.609375 25.4375 31.609375 27 33.75 C27.515625 34.44609375 28.03125 35.1421875 28.5625 35.859375 C30 38 30 38 31.0625 40.140625 C31.9668249 42.1755199 31.9668249 42.1755199 34 44 C35.97303774 45.97303774 36.77145934 47.54291869 38 50 C38.87205078 50.84691406 38.87205078 50.84691406 39.76171875 51.7109375 C42.45064812 54.46087225 44.61561895 57.48337494 46.8125 60.625 C47.46508789 61.54671997 47.46508789 61.54671997 48.13085938 62.48706055 C50.15225877 65.34686437 52.15158992 68.22031808 54.13671875 71.10546875 C54.75160156 71.99878906 55.36648438 72.89210938 56 73.8125 C56.804375 74.99779297 56.804375 74.99779297 57.625 76.20703125 C58.88996254 78.12731497 58.88996254 78.12731497 61 79 C61 79.99 61 80.98 61 82 C61.99 82.33 62.98 82.66 64 83 C64.33 83.99 64.66 84.98 65 86 C65.66 86.33 66.32 86.66 67 87 C67.94096271 88.64668474 68.87831819 90.29558735 69.79296875 91.95703125 C72.25080788 96.11706317 75.15258116 100.15715398 78.578125 103.57421875 C80.92872531 105.93127675 83 108.60211611 83 112 C83.66 112 84.32 112 85 112 C84.34215037 115.29680965 83.10579427 117.84117922 81.4375 120.75 C80.98246094 121.54921875 80.52742188 122.3484375 80.05859375 123.171875 C79.70925781 123.77515625 79.35992187 124.3784375 79 125 C78.34 125 77.68 125 77 125 C76.62875 126.04414063 76.62875 126.04414063 76.25 127.109375 C74.81416587 130.42974142 73.0128543 133.24551894 71 136.25 C70.29875 137.30703125 69.5975 138.3640625 68.875 139.453125 C67 142 67 142 65 143 C64.01448398 144.70822777 63.03194357 146.41840436 62.078125 148.14453125 C60.61650741 150.65999631 58.95520222 152.84927755 57 155 C56.34 155 55.68 155 55 155 C54.89494141 155.57218262 54.78988281 156.14436523 54.68164062 156.73388672 C53.88904509 159.36886944 52.72858714 161.04821249 51.09375 163.2578125 C50.51496094 164.04800781 49.93617188 164.83820313 49.33984375 165.65234375 C48.42912109 166.87630859 48.42912109 166.87630859 47.5 168.125 C46.30093433 169.75175788 45.10296309 171.37932319 43.90625 173.0078125 C43.10670898 174.08506592 43.10670898 174.08506592 42.29101562 175.18408203 C40.95012825 176.9715994 40.95012825 176.9715994 40 179 C39.34 179 38.68 179 38 179 C37.01 181.97 37.01 181.97 36 185 C35.34 185 34.68 185 34 185 C34 185.99 34 186.98 34 188 C33.02266716 189.02216462 32.01714882 190.01744808 31 191 C29.13811349 193.82807706 27.38476569 196.71141623 25.62109375 199.6015625 C24 202 24 202 22 203 C21.525625 203.94875 21.05125 204.8975 20.5625 205.875 C19.15850587 208.68298825 18.13357422 209.86642578 16 212 C15.505 212.99 15.01 213.98 14.5 215 C13.1233406 217.7533188 12.10129343 218.89870657 10 221 C8.5761529 223.29053664 7.2955399 225.63228915 6 228 C5.34 228 4.68 228 4 228 C2.92474806 230.65228812 1.90543849 233.28368454 1 236 C0.34 236.33 -0.32 236.66 -1 237 C-2.04808041 238.97522846 -3.0520411 240.97481509 -4 243 C-4.66 243 -5.32 243 -6 243 C-6.103125 243.556875 -6.20625 244.11375 -6.3125 244.6875 C-7.14178408 247.4769101 -8.34299056 249.6139064 -10 252 C-10.66 252 -11.32 252 -12 252 C-12.20625 252.804375 -12.4125 253.60875 -12.625 254.4375 C-14.15695414 258.4066539 -16.21700224 261.49057286 -18.66015625 264.94921875 C-20.15915825 267.05389843 -20.15915825 267.05389843 -21 270 C-21.66 270 -22.32 270 -23 270 C-23.20625 270.78375 -23.4125 271.5675 -23.625 272.375 C-25.49712997 277.31061537 -28.21049449 281.53310461 -31 286 C-33.02276522 289.28397142 -35.04279124 292.56961681 -37.0625 295.85546875 C-38.2220842 297.7374552 -39.38695368 299.61622373 -40.5625 301.48828125 C-44.10605165 307.21766504 -47.13004783 313.14102505 -50.10498047 319.17797852 C-51.86719917 322.75110769 -53.66051035 326.28213885 -55.625 329.75 C-61.40431262 339.95560891 -67.28762692 350.86288075 -71 362 C-71.66 362 -72.32 362 -73 362 C-73.103125 362.825 -73.20625 363.65 -73.3125 364.5 C-74.11646056 368.59289012 -75.46352158 372.12540225 -77 376 C-77.66 376 -78.32 376 -79 376 C-79.12375 376.845625 -79.2475 377.69125 -79.375 378.5625 C-80.02770327 382.15236798 -80.95247463 385.50824875 -82 389 C-82.66 389 -83.32 389 -84 389 C-84.12117188 389.6290625 -84.24234375 390.258125 -84.3671875 390.90625 C-85.42678016 396.31832326 -86.61599898 401.66171034 -88 407 C-88.66 407 -89.32 407 -90 407 C-90.17402344 408.96646484 -90.17402344 408.96646484 -90.3515625 410.97265625 C-90.87235161 415.65884461 -92.02968842 419.9339117 -93.375 424.4375 C-97.95517934 440.83861995 -99.52321053 458.10474385 -99.0078125 475.09765625 C-99.00394531 476.53431641 -99.00394531 476.53431641 -99 478 C-100 479 -100 479 -102.5625 479.0625 C-103.366875 479.041875 -104.17125 479.02125 -105 479 C-105 478.34 -105 477.68 -105 477 C-106.32 476.67 -107.64 476.34 -109 476 C-109 475.34 -109 474.68 -109 474 C-110.32 473.67 -111.64 473.34 -113 473 C-113 472.34 -113 471.68 -113 471 C-113.6909375 470.78988281 -114.381875 470.57976562 -115.09375 470.36328125 C-118.89932619 468.57813866 -121.48833017 466.07688625 -124.5 463.1875 C-125.33337891 462.40536133 -125.33337891 462.40536133 -126.18359375 461.60742188 C-145.92573399 443.00335796 -145.92573399 443.00335796 -152.65625 432.14453125 C-154.10148833 429.8380317 -155.69432893 427.68820861 -157.3125 425.5 C-167.31872397 411.21798869 -176.53200493 393.30721789 -180.4296875 376.26171875 C-180.94805254 373.95800193 -180.94805254 373.95800193 -181.97094727 371.7265625 C-183.06394199 368.83058029 -183.57791952 366.1721974 -184.03515625 363.11328125 C-184.28942383 361.4590918 -184.28942383 361.4590918 -184.54882812 359.77148438 C-184.71833984 358.63001953 -184.88785156 357.48855469 -185.0625 356.3125 C-185.40460436 354.03731523 -185.74951309 351.7625498 -186.09765625 349.48828125 C-186.24726807 348.48321533 -186.39687988 347.47814941 -186.55102539 346.44262695 C-186.88225993 344.00368768 -186.88225993 344.00368768 -188 342 C-188.23832028 339.36965024 -188.42435332 336.76087271 -188.5625 334.125 C-188.6042334 333.35921631 -188.6459668 332.59343262 -188.68896484 331.80444336 C-189.42027226 317.54991859 -188.68666263 304.81200367 -185 291 C-184.43388434 288.750907 -183.87126065 286.50093154 -183.3125 284.25 C-182.875 282.5 -182.4375 280.75 -182 279 C-181.34 279 -180.68 279 -180 279 C-179.92523438 278.45214844 -179.85046875 277.90429688 -179.7734375 277.33984375 C-177.93800451 266.27326246 -173.1978987 255.87600753 -168 246 C-167.03837107 244.08498468 -166.08036214 242.16814938 -165.125 240.25 C-164.61195313 239.22648438 -164.09890625 238.20296875 -163.5703125 237.1484375 C-162.53590012 235.07446642 -161.50963715 232.99640763 -160.4921875 230.9140625 C-157.79599264 225.42285936 -154.96587012 220.10756211 -151.765625 214.89453125 C-149.46489317 211.12275629 -147.2345678 207.31122783 -145 203.5 C-144.13432163 202.028524 -143.26844047 200.5571673 -142.40234375 199.0859375 C-140.97262753 196.65659596 -139.54813698 194.2245691 -138.12890625 191.7890625 C-137.61199219 190.90992188 -137.09507812 190.03078125 -136.5625 189.125 C-135.91474609 188.01511719 -135.91474609 188.01511719 -135.25390625 186.8828125 C-134 185 -134 185 -132.4453125 183.4609375 C-130.42466913 181.41844934 -129.52264388 178.94138329 -128.30078125 176.375 C-126.20429197 172.54717574 -123.50572608 169.17555246 -120.89453125 165.6875 C-119.23705761 163.33627966 -117.92051774 161.08981333 -116.6875 158.5 C-115.18576139 155.38528288 -114.33875179 154.28264491 -112 152 C-110.99520317 150.64378857 -110.02212347 149.26375571 -109.07421875 147.8671875 C-108.52443359 147.06023437 -107.97464844 146.25328125 -107.40820312 145.421875 C-106.84037109 144.58140625 -106.27253906 143.7409375 -105.6875 142.875 C-105.13126953 142.05773437 -104.57503906 141.24046875 -104.00195312 140.3984375 C-100.61485244 135.41614679 -100.61485244 135.41614679 -97.31494141 130.37597656 C-96.78433105 129.55323242 -96.2537207 128.73048828 -95.70703125 127.8828125 C-95.23370361 127.13660645 -94.76037598 126.39040039 -94.27270508 125.62158203 C-93.8527124 125.08645996 -93.43271973 124.55133789 -93 124 C-92.34 124 -91.68 124 -91 124 C-90.71125 123.2575 -90.4225 122.515 -90.125 121.75 C-88.49362393 117.76219182 -87.10805515 114.98851457 -84 112 C-80.38934422 107.67343833 -77.2798507 103.07278855 -74.1796875 98.37695312 C-73.16915907 96.88335114 -72.08972669 95.4368404 -71 94 C-70.34 94 -69.68 94 -69 94 C-68.5359375 92.824375 -68.5359375 92.824375 -68.0625 91.625 C-67 89 -67 89 -66 87 C-65.34 87 -64.68 87 -64 87 C-63.79375 86.34644531 -63.5875 85.69289063 -63.375 85.01953125 C-61.46014229 80.81446019 -58.78191572 77.35844775 -56 73.6875 C-55.4534375 72.94693359 -54.906875 72.20636719 -54.34375 71.44335938 C-53.8178125 70.74404297 -53.291875 70.04472656 -52.75 69.32421875 C-52.27046875 68.68572998 -51.7909375 68.04724121 -51.296875 67.3894043 C-50.86890625 66.93090088 -50.4409375 66.47239746 -50 66 C-49.34 66 -48.68 66 -48 66 C-48 65.01 -48 64.02 -48 63 C-47.34 63 -46.68 63 -46 63 C-45.773125 62.31164062 -45.54625 61.62328125 -45.3125 60.9140625 C-43.69466834 57.32209102 -41.44144726 54.43029686 -39 51.375 C-35.37506013 46.78052804 -35.37506013 46.78052804 -32 42 C-31.34 42 -30.68 42 -30 42 C-29.90525391 41.21109375 -29.90525391 41.21109375 -29.80859375 40.40625 C-28.63307632 36.90809184 -26.3526206 34.33294021 -24.0625 31.5 C-21.36366723 28.13313932 -18.84288267 24.92614134 -17 21 C-15.68733482 19.64631404 -14.35432675 18.31200404 -13 17 C-12.01 15.515 -12.01 15.515 -11 14 C-10.34 14 -9.68 14 -9 14 C-8.67 12.35 -8.34 10.7 -8 9 C-7.34 9 -6.68 9 -6 9 C-5.67 7.68 -5.34 6.36 -5 5 C-4.34 5 -3.68 5 -3 5 C-2.814375 4.0409375 -2.814375 4.0409375 -2.625 3.0625 C-2.41875 2.381875 -2.2125 1.70125 -2 1 C-1.34 0.67 -0.68 0.34 0 0 Z " fill="#8EE0F6" transform="translate(302,180)"/>
<path d="M0 0 C3.81312091 0.30520961 7.62535234 0.62038329 11.4375 0.9375 C12.52611328 1.02451172 13.61472656 1.11152344 14.73632812 1.20117188 C16.28803711 1.33168945 16.28803711 1.33168945 17.87109375 1.46484375 C19.30859985 1.58267212 19.30859985 1.58267212 20.77514648 1.70288086 C23 2 23 2 24 3 C25.39704717 3.2334695 26.80406494 3.40782249 28.21264648 3.55664062 C29.10704941 3.65344116 30.00145233 3.7502417 30.92295837 3.84997559 C31.89584305 3.95104614 32.86872772 4.0521167 33.87109375 4.15625 C34.86375748 4.2634436 35.8564212 4.37063721 36.87916565 4.4810791 C40.06484704 4.82488007 43.25108988 5.16302425 46.4375 5.5 C49.62031803 5.83715378 52.80296244 6.17561121 55.98512268 6.5189209 C57.96905513 6.73295118 59.95337693 6.94340711 61.93809509 7.15002441 C62.83565018 7.24682495 63.73320526 7.34362549 64.65795898 7.44335938 C65.44992172 7.52694702 66.24188446 7.61053467 67.05784607 7.69665527 C69 8 69 8 71 9 C72.70659223 9.26688877 74.42058091 9.48723292 76.13671875 9.68359375 C77.1824707 9.80549072 78.22822266 9.9273877 79.30566406 10.05297852 C80.42166992 10.17987061 81.53767578 10.3067627 82.6875 10.4375 C84.96751109 10.70519164 87.24745931 10.97341931 89.52734375 11.2421875 C90.63706543 11.37206055 91.74678711 11.50193359 92.89013672 11.63574219 C96.84519441 12.09899749 100.79868991 12.56809576 104.75 13.0625 C105.85859375 13.19785156 106.9671875 13.33320312 108.109375 13.47265625 C110.96018882 13.99273715 113.36002262 14.82178787 116 16 C115.34 17.98 114.68 19.96 114 22 C113.34 22 112.68 22 112 22 C111.566875 23.36125 111.566875 23.36125 111.125 24.75 C110.23468224 27.32202908 109.28505587 29.61346766 108 32 C107.34 32 106.68 32 106 32 C105.01 34.97 105.01 34.97 104 38 C103.34 38 102.68 38 102 38 C101.74476563 38.87398437 101.48953125 39.74796875 101.2265625 40.6484375 C99.97012819 44.08162423 98.44946252 46.62488089 96.375 49.625 C95.66988281 50.65753906 94.96476563 51.69007812 94.23828125 52.75390625 C93.49964844 53.82511719 92.76101563 54.89632812 92 56 C90.51269557 58.18218733 89.03658397 60.37129409 87.5625 62.5625 C86.90378906 63.53316406 86.24507812 64.50382812 85.56640625 65.50390625 C83.87516443 67.98048044 83.87516443 67.98048044 83 71 C82.34 71 81.68 71 81 71 C80.731875 71.556875 80.46375 72.11375 80.1875 72.6875 C78.89779026 75.19904002 77.45572363 77.58082644 76 80 C75.49339844 80.88300781 74.98679687 81.76601562 74.46484375 82.67578125 C73.96082031 83.54589844 73.45679688 84.41601562 72.9375 85.3125 C72.43089844 86.19550781 71.92429687 87.07851562 71.40234375 87.98828125 C70.70818359 88.98408203 70.70818359 88.98408203 70 90 C69.34 90 68.68 90 68 90 C67.92265625 90.52207031 67.8453125 91.04414063 67.765625 91.58203125 C66.68650128 94.99008015 64.72293484 97.74335954 62.75 100.6875 C59.5826725 105.49212692 56.61348099 110.30504223 53.97265625 115.42578125 C53 117 53 117 51 118 C49.87775145 119.88013106 49.87775145 119.88013106 48.875 122.0625 C48.52179688 122.79597656 48.16859375 123.52945313 47.8046875 124.28515625 C47.40636719 125.13400391 47.40636719 125.13400391 47 126 C46.34 126 45.68 126 45 126 C45 127.32 45 128.64 45 130 C54.05001584 131.81313758 63.15250731 132.93616508 72.3125 134 C75.14219182 134.33111695 77.97161162 134.6644507 80.80078125 135 C81.49706131 135.0825 82.19334137 135.165 82.91072083 135.25 C88.42896115 135.91239422 93.92549291 136.69715657 99.42504883 137.5 C103.34491878 138.04824105 107.26884892 138.53430303 111.19921875 139 C111.894814 139.0825 112.59040924 139.165 113.30708313 139.25 C116.15112212 139.58589769 118.99540243 139.91962029 121.84008789 140.25 C130.28182871 141.23331732 138.66027523 142.32916664 147 144 C145.24710233 147.74161117 143.0132893 150.22460196 140 153 C139.25492188 153.69222656 138.50984375 154.38445312 137.7421875 155.09765625 C131.267306 161 131.267306 161 129 161 C129 161.66 129 162.32 129 163 C128.34 163 127.68 163 127 163 C126.67 163.99 126.34 164.98 126 166 C124.625 167.6875 124.625 167.6875 123 169 C122.01 169 121.02 169 120 169 C119.67 169.99 119.34 170.98 119 172 C118.34 172 117.68 172 117 172 C116.67 172.99 116.34 173.98 116 175 C115.34 175 114.68 175 114 175 C114 175.66 114 176.32 114 177 C112.20703125 178.55078125 112.20703125 178.55078125 109.8125 180.3125 C106.25458608 183.00181522 103.07381369 185.75541888 100 189 C98.37163262 190.7041054 96.71230248 192.38025441 95 194 C94.34 194 93.68 194 93 194 C93 194.66 93 195.32 93 196 C92.01 196 91.02 196 90 196 C89.67 196.99 89.34 197.98 89 199 C88.34 199 87.68 199 87 199 C86.67 199.99 86.34 200.98 86 202 C85.34 202 84.68 202 84 202 C83.67 202.99 83.34 203.98 83 205 C82.0409375 205.2165625 82.0409375 205.2165625 81.0625 205.4375 C80.381875 205.623125 79.70125 205.80875 79 206 C78.30062468 207.31647119 77.63270867 208.65022151 77 210 C76.01 210.33 75.02 210.66 74 211 C74 211.66 74 212.32 74 213 C72.00715862 214.3440093 70.00580329 215.67541292 68 217 C66.31237149 218.6454378 64.6459651 220.31288577 63 222 C61 223.66666667 59 225.33333333 57 227 C55.33191308 228.6652452 53.6654646 230.33213213 52 232 C47.72300006 236.05985779 43.35556232 240.02483614 39 244 C38.15695312 244.77085937 37.31390625 245.54171875 36.4453125 246.3359375 C35.74148438 246.96757812 35.03765625 247.59921875 34.3125 248.25 C33.40951172 249.06210937 33.40951172 249.06210937 32.48828125 249.890625 C31 251 31 251 29 251 C28.67 251.99 28.34 252.98 28 254 C26.35360035 255.35827971 24.68704193 256.69254251 23 258 C22.67 258.66 22.34 259.32 22 260 C21.01 260.33 20.02 260.66 19 261 C18.67 261.66 18.34 262.32 18 263 C17.34 263 16.68 263 16 263 C16 263.66 16 264.32 16 265 C15.195625 265.268125 14.39125 265.53625 13.5625 265.8125 C12.716875 266.204375 11.87125 266.59625 11 267 C10.67 267.99 10.34 268.98 10 270 C8.43359375 271.578125 8.43359375 271.578125 6.4375 273.25 C2.7822681 276.33883561 -0.7901511 279.50103337 -4.3359375 282.71484375 C-6 284 -6 284 -8 284 C-8.33 284.99 -8.66 285.98 -9 287 C-10.71714229 288.54117068 -12.49795173 290.01229851 -14.3125 291.4375 C-17.09509852 293.63311512 -19.75379217 295.74775555 -22.23046875 298.28515625 C-24 300 -24 300 -26 300 C-26.33 300.99 -26.66 301.98 -27 303 C-27.66 303 -28.32 303 -29 303 C-29 303.66 -29 304.32 -29 305 C-30.65 305.33 -32.3 305.66 -34 306 C-31.84127481 298.44446184 -28.46981992 291.75681136 -24.9140625 284.7890625 C-23.50172307 282.01719403 -22.16855885 279.2331975 -20.9375 276.375 C-19.09568453 272.11480075 -17.00898414 267.99191528 -14.91552734 263.85058594 C-11.97445047 258.00544627 -9.19127809 252.08946711 -6.4074707 246.16821289 C-4.01332859 241.09263161 -1.54207509 236.06536474 1 231.0625 C4.51030516 224.14069696 7.71681367 217.09756953 10.85546875 210.00024414 C12.8362721 205.53028567 14.91148995 201.13803862 17.12597656 196.77929688 C18.21289821 194.56659158 19.13466029 192.30757255 20 190 C19.27296875 190.02320313 18.5459375 190.04640625 17.796875 190.0703125 C11.4579031 190.18408892 5.59615366 189.73986742 -0.62890625 188.57421875 C-5.52553435 187.74014652 -10.45103126 187.22060914 -15.3894043 186.69775391 C-20.79261269 186.10369365 -20.79261269 186.10369365 -23 185 C-25.49825206 184.65851899 -27.98563576 184.36213691 -30.4921875 184.09765625 C-32.01695055 183.92794509 -33.5416894 183.7580164 -35.06640625 183.58789062 C-37.47121184 183.32393657 -39.87622599 183.0623688 -42.28173828 182.80493164 C-44.60267822 182.55501725 -46.92241706 182.29567253 -49.2421875 182.03515625 C-50.31737137 181.92410301 -50.31737137 181.92410301 -51.41427612 181.81080627 C-55.20028303 181.37990833 -57.51662376 180.74168812 -61 179 C-60.01 174.71 -59.02 170.42 -58 166 C-57.34 166 -56.68 166 -56 166 C-55.85498047 164.58267578 -55.85498047 164.58267578 -55.70703125 163.13671875 C-54.98773961 158.16130763 -53.32287848 153.5502936 -51.6875 148.8125 C-50.96825231 146.69417934 -50.24953874 144.57567727 -49.53125 142.45703125 C-49.13292969 141.28736816 -48.73460937 140.11770508 -48.32421875 138.91259766 C-46.83143912 134.51481564 -45.36838235 130.10726711 -43.90625 125.69921875 C-43.64060745 124.89893753 -43.3749649 124.09865631 -43.10127258 123.27412415 C-42.03335738 120.05668964 -40.96558536 116.83920864 -39.89926147 113.62124634 C-39.14656742 111.35116716 -38.39185176 109.08176884 -37.63671875 106.8125 C-37.41508057 106.14244431 -37.19344238 105.47238861 -36.96508789 104.7820282 C-35.63451438 100.7897141 -34.21156332 96.84279733 -32.72080994 92.90756226 C-28.9650747 82.96832805 -25.59570966 72.89641899 -22.26367188 62.80960083 C-18.86797847 52.53251464 -15.45139865 42.26734778 -11.78759766 32.08203125 C-10.55650858 28.64337769 -9.43864932 25.19972876 -8.4375 21.6875 C-6.78056751 15.92768706 -4.35727538 10.50030922 -2 5 C-1.33068464 3.33439525 -0.66361886 1.66788256 0 0 Z " fill="#FDCD04" transform="translate(721,62)"/>
<path d="M0 0 C1.65 0.33 3.3 0.66 5 1 C5.495 2.98 5.495 2.98 6 5 C6.66 5 7.32 5 8 5 C11 9.38461538 11 9.38461538 11 12 C11.66 12 12.32 12 13 12 C14.40234375 13.79296875 14.40234375 13.79296875 15.9375 16.1875 C16.46988281 17.00992188 17.00226563 17.83234375 17.55078125 18.6796875 C18.60726818 20.37120566 19.62727558 22.08566928 20.625 23.8125 C21.95364818 26.11794294 21.95364818 26.11794294 24.125 28.0625 C26.09732587 30.10057007 26.60548202 31.23837416 27 34 C27.66 34 28.32 34 29 34 C30.4453125 35.80078125 30.4453125 35.80078125 32.125 38.3125 C34.61875 41.97615741 37.13746414 45.60735826 39.75 49.1875 C40.73226562 50.53714844 40.73226562 50.53714844 41.734375 51.9140625 C43.46447433 54.2705771 45.20467303 56.61810141 46.953125 58.9609375 C47.4574707 59.64003174 47.96181641 60.31912598 48.48144531 61.01879883 C49.48200198 62.36536794 50.48647292 63.70903872 51.49511719 65.04956055 C55 69.7754473 55 69.7754473 55 72 C55.99 72.33 56.98 72.66 58 73 C59.03013277 74.64821244 60.03114628 76.31503702 61 78 C61.66 78.33 62.32 78.66 63 79 C63.89453125 80.671875 63.89453125 80.671875 64.8125 82.75 C66.6557749 86.60100556 68.89154088 89.04696384 72 92 C76 97.51351351 76 97.51351351 76 100 C76.66 100 77.32 100 78 100 C79.6354808 101.90412475 81.13794613 103.79800671 82.625 105.8125 C83.04523438 106.35970703 83.46546875 106.90691406 83.8984375 107.47070312 C87 111.62458147 87 111.62458147 87 115 C87.99 115.33 88.98 115.66 90 116 C94 121.37142857 94 121.37142857 94 124 C94.66 124 95.32 124 96 124 C97.72689953 126.40818064 99.34861262 128.81567697 100.9375 131.3125 C101.81834568 132.68569611 102.70236236 134.05686436 103.58984375 135.42578125 C104.17560181 136.34484253 104.17560181 136.34484253 104.77319336 137.2824707 C106.04088002 139.05723203 107.44252679 140.47852425 109 142 C110.33697287 143.77347941 111.64728792 145.56721724 112.9375 147.375 C114.97310834 150.22249838 116.99236959 152.99098104 119.25390625 155.6640625 C121 158 121 158 121 161 C121.99 161.33 122.98 161.66 124 162 C127 166.33333333 127 166.33333333 127 169 C127.99 169.33 128.98 169.66 130 170 C131.03432904 171.98246398 132.03238392 173.98413316 133 176 C134.45833358 177.62514468 134.45833358 177.62514468 136 179 C139 182.66666667 139 182.66666667 139 185 C139.66 185 140.32 185 141 185 C141.66 186.98 142.32 188.96 143 191 C143.66 191 144.32 191 145 191 C145 191.99 145 192.98 145 194 C145.66 194 146.32 194 147 194 C149 197 149 197 149 200 C149.66 200 150.32 200 151 200 C151.75 202.75 151.75 202.75 152 206 C149.8078282 208.92289573 147.39987427 210.68391964 144 212 C143.01 212 142.02 212 141 212 C141 212.66 141 213.32 141 214 C129.47835991 218.59225513 129.47835991 218.59225513 124 218 C124 218.66 124 219.32 124 220 C117.23837495 221.58503133 110.28350194 221.33353422 103.375 221.375 C102.2641806 221.38234161 102.2641806 221.38234161 101.13092041 221.38983154 C89.04502622 221.42292204 78.45780339 220.01388017 67 216 C64.67402354 215.30343302 62.33953413 214.65020819 60 214 C60 213.34 60 212.68 60 212 C58.88496094 211.91363281 57.76992188 211.82726562 56.62109375 211.73828125 C51.41065535 211.08368052 46.87788292 209.20827379 42.0625 207.1875 C41.22009766 206.84396484 40.37769531 206.50042969 39.50976562 206.14648438 C32.16428732 203.13251984 24.93105486 199.88198456 17.70703125 196.58984375 C8.46589039 192.38172375 -0.84269906 188.32526148 -10.14404297 184.25244141 C-12.4537113 183.23956753 -14.76076138 182.22119659 -17.06640625 181.19921875 C-24.39236715 177.99032678 -31.82069716 175.15483981 -39.34326172 172.44628906 C-42.79668098 171.20045839 -46.1596868 169.92823864 -49.51171875 168.421875 C-53.58476482 166.76164122 -57.57962194 165.82355846 -61.875 164.9375 C-63.39322917 164.61328125 -64.91145833 164.2890625 -66.4296875 163.96484375 C-67.56313599 163.72858276 -67.56313599 163.72858276 -68.71948242 163.48754883 C-70.23087402 163.16443042 -71.73905321 162.82587331 -73.2434082 162.47143555 C-78.62490035 161.20578941 -83.93747786 160.46414658 -89.4375 159.9375 C-97.74175824 159.12912088 -97.74175824 159.12912088 -100 158 C-103.04924878 157.76307995 -106.09724003 157.6176244 -109.15234375 157.4765625 C-112.31892969 156.94662631 -112.93350112 156.2981452 -115 154 C-113.21885509 151.49234716 -111.42340948 148.99529316 -109.625 146.5 C-109.11710937 145.78457031 -108.60921875 145.06914062 -108.0859375 144.33203125 C-107.59609375 143.65527344 -107.10625 142.97851562 -106.6015625 142.28125 C-106.15119629 141.65283203 -105.70083008 141.02441406 -105.23681641 140.37695312 C-104.82866699 139.92255859 -104.42051758 139.46816406 -104 139 C-103.34 139 -102.68 139 -102 139 C-101.84144531 138.13181641 -101.84144531 138.13181641 -101.6796875 137.24609375 C-100.9011107 134.67321064 -99.79421417 133.15939839 -98.125 131.0625 C-96.37773252 128.8201734 -94.82463735 126.70323244 -93.375 124.25 C-92 122 -92 122 -90.1640625 120.1953125 C-87.82347829 117.82092924 -85.94220568 115.33346652 -84 112.625 C-83.30648438 111.66207031 -82.61296875 110.69914062 -81.8984375 109.70703125 C-80.42137434 107.60084859 -79.0030947 105.4832582 -77.625 103.3125 C-77.08875 102.549375 -76.5525 101.78625 -76 101 C-75.34 101 -74.68 101 -74 101 C-73.7525 100.278125 -73.505 99.55625 -73.25 98.8125 C-71.87118392 95.71016381 -70.1470454 93.62755644 -68 91 C-66.51306112 89.04756147 -65.03419217 87.08895662 -63.5625 85.125 C-62.386875 83.55878906 -62.386875 83.55878906 -61.1875 81.9609375 C-59.43166535 79.58428988 -57.73313058 77.18633627 -56.0625 74.75 C-55.381875 73.8425 -54.70125 72.935 -54 72 C-53.34 72 -52.68 72 -52 72 C-51.91621094 71.45859375 -51.83242188 70.9171875 -51.74609375 70.359375 C-50.74149281 67.18252177 -49.02577067 64.93396497 -47.0625 62.25 C-46.35222656 61.26515625 -45.64195312 60.2803125 -44.91015625 59.265625 C-44.27980469 58.51796875 -43.64945312 57.7703125 -43 57 C-42.34 57 -41.68 57 -41 57 C-40.01 54.03 -40.01 54.03 -39 51 C-38.34 51 -37.68 51 -37 51 C-36.71125 50.4225 -36.4225 49.845 -36.125 49.25 C-35.08333333 47.16666667 -34.04166667 45.08333333 -33 43 C-32.34 43 -31.68 43 -31 43 C-31 42.01 -31 41.02 -31 40 C-29.5625 38.4375 -29.5625 38.4375 -28 37 C-27.505 36.01 -27.505 36.01 -27 35 C-26.34 35 -25.68 35 -25 35 C-24.71125 34.236875 -24.4225 33.47375 -24.125 32.6875 C-23 30 -23 30 -21 27 C-20.34 27 -19.68 27 -19 27 C-18.71125 26.2575 -18.4225 25.515 -18.125 24.75 C-16.26777394 20.21011407 -14.54824622 17.43736353 -11 14 C-10.34 13.01 -9.68 12.02 -9 11 C-8.34 11 -7.68 11 -7 11 C-6.84724609 10.12601563 -6.84724609 10.12601563 -6.69140625 9.234375 C-5.88482847 6.62780725 -4.75842991 5.26464586 -2.9375 3.25 C-2.38964844 2.63640625 -1.84179688 2.0228125 -1.27734375 1.390625 C-0.85582031 0.93171875 -0.43429687 0.4728125 0 0 Z " fill="#B0EBF5" transform="translate(495,189)"/>
<path d="M0 0 C0.99 0.66 1.98 1.32 3 2 C3 2.66 3 3.32 3 4 C3.66 4 4.32 4 5 4 C9 9.41176471 9 9.41176471 9 12 C9.66 12 10.32 12 11 12 C14.89812856 18.55467935 15.57835675 23.51143616 15.51757812 31.0625 C15.5245874 32.14321777 15.53159668 33.22393555 15.53881836 34.33740234 C15.55635103 37.89186683 15.54479166 41.44552812 15.53125 45 C15.53394625 47.4804703 15.53782978 49.96093956 15.54284668 52.44140625 C15.54873536 57.63291515 15.54019865 62.82414823 15.52148438 68.015625 C15.49869576 74.66013546 15.51182214 81.30399956 15.53577423 87.94848633 C15.55024892 93.06840865 15.54561843 98.18817848 15.53526306 103.30810547 C15.53260042 105.75765052 15.53584917 108.20720956 15.54518127 110.65673828 C15.55537387 114.08403031 15.53980622 117.51028495 15.51757812 120.9375 C15.52567505 121.94345215 15.53377197 122.9494043 15.54211426 123.98583984 C15.46528842 130.40079697 14.28736312 134.472319 11 140 C10.34 140 9.68 140 9 140 C8.67 141.32 8.34 142.64 8 144 C7.34 144 6.68 144 6 144 C5.67 144.99 5.34 145.98 5 147 C4.34 147 3.68 147 3 147 C2.67 147.99 2.34 148.98 2 150 C1.34 150 0.68 150 0 150 C-0.33 150.99 -0.66 151.98 -1 153 C-6.22222222 156 -6.22222222 156 -9 156 C-9 156.66 -9 157.32 -9 158 C-20.31465648 162.37986703 -31.68534352 162.37986703 -43 158 C-43 157.34 -43 156.68 -43 156 C-44.11375 155.814375 -44.11375 155.814375 -45.25 155.625 C-50.00029675 154.5453871 -52.77978471 152.68024605 -56 149 C-56 148.34 -56 147.68 -56 147 C-56.66 147 -57.32 147 -58 147 C-59.7265625 144.6640625 -59.7265625 144.6640625 -61.625 141.625 C-62.25664063 140.62726563 -62.88828125 139.62953125 -63.5390625 138.6015625 C-65 136 -65 136 -65 134 C-65.66 134 -66.32 134 -67 134 C-68.31227855 130.06316436 -68.13915717 126.31193565 -68.12939453 122.20849609 C-68.13114685 121.30877579 -68.13289917 120.40905548 -68.13470459 119.48207092 C-68.13911807 116.49584034 -68.13618341 113.50966873 -68.1328125 110.5234375 C-68.13348651 108.43852731 -68.13445734 106.3536172 -68.13571167 104.26870728 C-68.13718863 99.88551083 -68.13503716 95.50233471 -68.13037109 91.11914062 C-68.12472315 85.54613781 -68.12792114 79.97318368 -68.13394356 74.40018272 C-68.13759164 70.08458096 -68.13639044 65.76899035 -68.13381577 61.45338821 C-68.13315559 59.4020347 -68.13394253 57.35068012 -68.13629532 55.29932785 C-68.14489886 45.67431696 -68.10975793 36.0554714 -67.64404297 26.43994141 C-67.5807077 25.12603424 -67.51737244 23.81212708 -67.45211792 22.45840454 C-66.80541866 17.51158084 -64.96724715 13.93784201 -62 10 C-61.34 9.01 -60.68 8.02 -60 7 C-59.34 7 -58.68 7 -58 7 C-57.67 6.01 -57.34 5.02 -57 4 C-56.34 4 -55.68 4 -55 4 C-54.67 3.01 -54.34 2.02 -54 1 C-50.55555556 -2 -50.55555556 -2 -48 -2 C-48 -2.66 -48 -3.32 -48 -4 C-46.60721983 -4.65239158 -45.21060788 -5.29660552 -43.8125 -5.9375 C-43.03519531 -6.29714844 -42.25789062 -6.65679688 -41.45703125 -7.02734375 C-27.39492443 -12.59406012 -11.82330518 -8.44521799 0 0 Z " fill="#91E6F9" transform="translate(625,577)"/>
<path d="M0 0 C0.66 0 1.32 0 2 0 C2 21.12 2 42.24 2 64 C-24.73 63.67 -51.46 63.34 -79 63 C-79 62.67 -79 62.34 -79 62 C-52.93 62 -26.86 62 0 62 C0 41.54 0 21.08 0 0 Z " fill="#91E6F7" transform="translate(434,577)"/>
<path d="M0 0 C0.33 0 0.66 0 1 0 C1.0462965 10.77002549 1.08185553 21.54002738 1.10362434 32.31013203 C1.11407113 37.31087567 1.12824667 42.31155134 1.15087891 47.31225586 C1.17257535 52.13626462 1.18456188 56.96020792 1.18975449 61.7842617 C1.193456 63.62670103 1.20068392 65.4691367 1.21146011 67.31154823 C1.22593254 69.88787262 1.22797973 72.46392485 1.22705078 75.0402832 C1.23783661 76.18827141 1.23783661 76.18827141 1.24884033 77.35945129 C1.23410689 81.1240888 1.14294328 82.78558507 -1 86 C-1.66 86 -2.32 86 -3 86 C-2.67 80.39 -2.34 74.78 -2 69 C-1.34 69 -0.68 69 0 69 C0 46.23 0 23.46 0 0 Z " fill="#96EDFE" transform="translate(354,667)"/>
<path d="M0 0 C14.19 0 28.38 0 43 0 C43 0.66 43 1.32 43 2 C38.48631748 2.87782924 34.22780021 3.1166438 29.6328125 3.09765625 C28.61343094 3.09553383 28.61343094 3.09553383 27.57345581 3.09336853 C25.42392388 3.08781518 23.27449992 3.07527169 21.125 3.0625 C19.65885568 3.05747896 18.19270971 3.05291711 16.7265625 3.04882812 C13.15100717 3.03786111 9.57551414 3.02062919 6 3 C6 2.34 6 1.68 6 1 C4.02 1 2.04 1 0 1 C0 0.67 0 0.34 0 0 Z " fill="#E1F6FB" transform="translate(579,432)"/>
<path d="M0 0 C0.66 0 1.32 0 2 0 C1.31571262 11.03863582 0.20697296 22.0083433 -1 33 C-1.33 33 -1.66 33 -2 33 C-2.33 27.06 -2.66 21.12 -3 15 C-2.34 15 -1.68 15 -1 15 C-1.01160156 14.41992188 -1.02320313 13.83984375 -1.03515625 13.2421875 C-1.08762174 8.7001754 -0.91751063 4.47286431 0 0 Z " fill="#C5E3EF" transform="translate(203,617)"/>
<path d="M0 0 C2.26004973 4.52009946 3.18100954 7.28046328 3.25 12.4375 C3.27578125 13.59121094 3.3015625 14.74492187 3.328125 15.93359375 C3 19 3 19 1.484375 20.91015625 C0.99453125 21.26980469 0.5046875 21.62945312 0 22 C-1.27831175 14.96928537 -2.28289063 6.84867189 0 0 Z " fill="#95E4F9" transform="translate(114,490)"/>
<path d="M0 0 C5.11365014 1.0681847 10.07227969 2.23107476 15 4 C15 4.66 15 5.32 15 6 C16.17369141 6.18175781 16.17369141 6.18175781 17.37109375 6.3671875 C18.38300781 6.53476562 19.39492188 6.70234375 20.4375 6.875 C21.95150391 7.11863281 21.95150391 7.11863281 23.49609375 7.3671875 C24.32238281 7.57601563 25.14867187 7.78484375 26 8 C26.33 8.66 26.66 9.32 27 10 C20.56318772 9.48914188 15.04057576 8.27057103 9 6 C9 5.34 9 4.68 9 4 C4.545 3.01 4.545 3.01 0 2 C0 1.34 0 0.68 0 0 Z " fill="#C3E8EE" transform="translate(525,416)"/>
<path d="M0 0 C7.80356243 1.99239892 14.84654722 5.33156268 22 9 C18.27418755 10.24193748 17.20783466 9.54831788 13.625 8.125 C10.81653813 7.01863623 8.22519712 6.04465392 5.26171875 5.45703125 C2.59050022 4.91725134 1.63302831 4.14872147 0 2 C0 1.34 0 0.68 0 0 Z " fill="#C2E1E7" transform="translate(503,406)"/>
<path d="M0 0 C0.66 0 1.32 0 2 0 C0.70383226 5.05505417 -1.69085827 8.74573824 -4.66015625 12.94921875 C-6.15915825 15.05389843 -6.15915825 15.05389843 -7 18 C-7.66 18 -8.32 18 -9 18 C-9.33 18.66 -9.66 19.32 -10 20 C-10.33 18.68 -10.66 17.36 -11 16 C-10.34 16 -9.68 16 -9 16 C-8.67386719 15.24074219 -8.34773438 14.48148437 -8.01171875 13.69921875 C-7.35623047 12.20841797 -7.35623047 12.20841797 -6.6875 10.6875 C-6.25824219 9.70136719 -5.82898438 8.71523438 -5.38671875 7.69921875 C-4.11816119 5.22999827 -3.01869111 3.837744 -1 2 C-0.67 1.34 -0.34 0.68 0 0 Z " fill="#BCE5EE" transform="translate(288,432)"/>
<path d="M0 0 C3.25516428 3.16474305 6.32008793 6.32752791 9 10 C9 10.66 9 11.32 9 12 C6 11 6 11 5 9.125 C4.505 8.073125 4.505 8.073125 4 7 C2.4587688 5.29078411 2.4587688 5.29078411 1 4 C-0.65 5.32 -2.3 6.64 -4 8 C-4.66 7.67 -5.32 7.34 -6 7 C-5.67 6.34 -5.34 5.68 -5 5 C-4.34 5 -3.68 5 -3 5 C-2.87625 4.360625 -2.7525 3.72125 -2.625 3.0625 C-2.41875 2.381875 -2.2125 1.70125 -2 1 C-1.34 0.67 -0.68 0.34 0 0 Z " fill="#BCE7EF" transform="translate(302,180)"/>
<path d="M0 0 C0.33 0 0.66 0 1 0 C2.6277833 6.14778871 3.20190089 11.64012196 3 18 C2.34 18 1.68 18 1 18 C-0.5134957 14.97300861 -0.41493128 11.76461781 -0.625 8.4375 C-0.6765625 7.73947266 -0.728125 7.04144531 -0.78125 6.32226562 C-0.89810559 4.55052869 -0.95389642 2.77498773 -1 1 C-0.67 0.67 -0.34 0.34 0 0 Z " fill="#C2E2EB" transform="translate(765,624)"/>
<path d="M0 0 C0.66 0 1.32 0 2 0 C3.53266582 3.06533164 3.10276471 6.26754272 3.0625 9.625 C3.05798828 10.33140625 3.05347656 11.0378125 3.04882812 11.765625 C3.03703875 13.51045275 3.01910324 15.255237 3 17 C2.34 17 1.68 17 1 17 C0.67 11.39 0.34 5.78 0 0 Z " fill="#B5E1EE" transform="translate(351,552)"/>
<path d="M0 0 C0.66 0 1.32 0 2 0 C2.02699725 2.27076842 2.04639453 4.54162821 2.0625 6.8125 C2.07410156 8.07707031 2.08570313 9.34164062 2.09765625 10.64453125 C2 14 2 14 1 17 C0.34 17 -0.32 17 -1 17 C-0.67 11.39 -0.34 5.78 0 0 Z " fill="#B7ECF2" transform="translate(352,736)"/>
<path d="M0 0 C0.66 0 1.32 0 2 0 C0.86375209 3.93316586 -0.0859045 6.1979851 -3 9 C-4.42768778 11.28842373 -5.70433574 13.63206188 -7 16 C-7.66 16 -8.32 16 -9 16 C-9.33 15.01 -9.66 14.02 -10 13 C-9.360625 12.401875 -8.72125 11.80375 -8.0625 11.1875 C-5.79689611 9.09189663 -5.79689611 9.09189663 -5 6 C-4.34 6 -3.68 6 -3 6 C-3 5.34 -3 4.68 -3 4 C-2.34 4 -1.68 4 -1 4 C-0.67 2.68 -0.34 1.36 0 0 Z " fill="#BAEEF4" transform="translate(315,392)"/>
<path d="M0 0 C0.66 0.33 1.32 0.66 2 1 C1.05029764 3.11856679 0.25157967 4.75935857 -1.4375 6.375 C-3.24033937 8.07190976 -3.24033937 8.07190976 -4.4375 11.125 C-6 14 -6 14 -8.1875 14.875 C-9.0846875 14.936875 -9.0846875 14.936875 -10 15 C-10 14.34 -10 13.68 -10 13 C-9.34 13 -8.68 13 -8 13 C-7.79375 12.34 -7.5875 11.68 -7.375 11 C-5.48847129 6.88393737 -2.79432021 3.5412297 0 0 Z " fill="#BEE7F4" transform="translate(356,376)"/>
<path d="M0 0 C0.66 0 1.32 0 2 0 C1.44151174 4.18358477 -1.04446302 7.02629569 -3.5625 10.25 C-3.98724609 10.80429687 -4.41199219 11.35859375 -4.84960938 11.9296875 C-5.89398341 13.29089411 -6.94622464 14.64605833 -8 16 C-8.33 15.01 -8.66 14.02 -9 13 C-7.404772 9.809544 -5.56345775 7.44693694 -3 5 C-2.67 4.34 -2.34 3.68 -2 3 C-1.34 3 -0.68 3 0 3 C0 2.01 0 1.02 0 0 Z " fill="#C0E5EE" transform="translate(355,335)"/>
<path d="M0 0 C1.875 0.1875 1.875 0.1875 4 1 C4.309375 1.804375 4.61875 2.60875 4.9375 3.4375 C5.77381806 6.24507417 5.77381806 6.24507417 8.625 7.3125 C9.800625 7.6528125 9.800625 7.6528125 11 8 C11 8.66 11 9.32 11 10 C11.66 10 12.32 10 13 10 C13.66 11.65 14.32 13.3 15 15 C9.52737498 10.41056518 4.1392097 5.88203483 0 0 Z " fill="#B0E8FA" transform="translate(164,629)"/>
<path d="M0 0 C0.99 0 1.98 0 3 0 C3 3.3 3 6.6 3 10 C2.01 9.67 1.02 9.34 0 9 C-1.36623674 6.26752652 -1.128426 4.01801098 -1 1 C-0.67 0.67 -0.34 0.34 0 0 Z " fill="#AAEBEE" transform="translate(115,515)"/>
<path d="M0 0 C1 3 1 3 0.375 5.375 C-1.29214537 8.55773207 -3.37349046 10.56567409 -6 13 C-6.8971875 13.8971875 -6.8971875 13.8971875 -7.8125 14.8125 C-8.204375 15.204375 -8.59625 15.59625 -9 16 C-8.12123086 9.848616 -5.3862158 6.2400086 -1 2 C-0.67 1.34 -0.34 0.68 0 0 Z " fill="#C7E8EF" transform="translate(408,305)"/>
<path d="M0 0 C2.875 -0.125 2.875 -0.125 6 0 C6.66 0.66 7.32 1.32 8 2 C4.95786733 3.52106634 1.71952428 3.37429338 -1.625 3.5625 C-2.68460938 3.62727539 -2.68460938 3.62727539 -3.765625 3.69335938 C-5.51018537 3.79944751 -7.25506697 3.90022889 -9 4 C-5.5647952 1.70986347 -4.014669 1.82157027 0 2 C0 1.34 0 0.68 0 0 Z " fill="#B5EEF9" transform="translate(531,916)"/>
<path d="M0 0 C0.66 0 1.32 0 2 0 C1.68817931 1.41681634 1.37551263 2.83344651 1.0625 4.25 C0.88847656 5.03890625 0.71445313 5.8278125 0.53515625 6.640625 C0.052444 8.76878703 -0.46163178 10.88532842 -1 13 C-1.66 13 -2.32 13 -3 13 C-2.67 9.7 -2.34 6.4 -2 3 C-1.34 3 -0.68 3 0 3 C0 2.01 0 1.02 0 0 Z " fill="#CBDDE7" transform="translate(207,602)"/>
<path d="M0 0 C3.2146431 6.21497665 3.2146431 6.21497665 2.44140625 9.04296875 C2.15136719 9.75066406 1.86132812 10.45835937 1.5625 11.1875 C1.13130859 12.26064453 1.13130859 12.26064453 0.69140625 13.35546875 C0.46324219 13.89816406 0.23507813 14.44085938 0 15 C-0.33 15 -0.66 15 -1 15 C-1.02703381 13.06257659 -1.04641125 11.12504521 -1.0625 9.1875 C-1.07410156 8.10855469 -1.08570312 7.02960938 -1.09765625 5.91796875 C-1 3 -1 3 0 0 Z " fill="#C7E4DB" transform="translate(114,490)"/>
<path d="M0 0 C1.39195915 4.17587745 -0.17676781 6.13474776 -2 10 C-2.66 10 -3.32 10 -4 10 C-4.66 11.65 -5.32 13.3 -6 15 C-6.66 15 -7.32 15 -8 15 C-6.62712658 11.30123909 -4.93644547 8.0485524 -2.875 4.6875 C-2.33617187 3.80449219 -1.79734375 2.92148437 -1.2421875 2.01171875 C-0.83226562 1.34785156 -0.42234375 0.68398438 0 0 Z " fill="#BCF1F2" transform="translate(308,446)"/>
<path d="M0 0 C1.98 0 3.96 0 6 0 C6.33 0.99 6.66 1.98 7 3 C9.01508358 3.73323796 9.01508358 3.73323796 11 4 C8.83032311 4.95465783 7.43671207 5.14401212 5.17578125 4.3984375 C3.4315257 3.64129615 1.71372869 2.82390802 0 2 C0 1.34 0 0.68 0 0 Z " fill="#B1EDFD" transform="translate(421,909)"/>
<path d="M0 0 C0.66 0.33 1.32 0.66 2 1 C1 4 1 4 -1 5 C-1.28875 5.825 -1.5775 6.65 -1.875 7.5 C-3 10 -3 10 -5.125 10.8125 C-5.74375 10.874375 -6.3625 10.93625 -7 11 C-5.22054913 6.95579349 -2.60470327 3.53921513 0 0 Z " fill="#B5E3E7" transform="translate(246,254)"/>
<path d="M0 0 C0.66 0.66 1.32 1.32 2 2 C1.5390625 4.8203125 1.5390625 4.8203125 0.625 8.125 C0.32851563 9.22070312 0.03203125 10.31640625 -0.2734375 11.4453125 C-0.51320313 12.28835938 -0.75296875 13.13140625 -1 14 C-1.66 13.67 -2.32 13.34 -3 13 C-3 10.69 -3 8.38 -3 6 C-2.01 6 -1.02 6 0 6 C0 4.02 0 2.04 0 0 Z " fill="#B5F0FA" transform="translate(761,703)"/>
<path d="M0 0 C0.33 0.66 0.66 1.32 1 2 C-0.3125 4.625 -0.3125 4.625 -2 7 C-2.66 7 -3.32 7 -4 7 C-3.67 7.99 -3.34 8.98 -3 10 C-3.66 10.66 -4.32 11.32 -5 12 C-5.99 12 -6.98 12 -8 12 C-7 10 -6 8 -5 6 C-4.34 6 -3.68 6 -3 6 C-2.690625 5.195625 -2.38125 4.39125 -2.0625 3.5625 C-1 1 -1 1 0 0 Z " fill="#B8E0F0" transform="translate(214,298)"/>
<path d="M0 0 C0.80050781 0.03480469 1.60101562 0.06960938 2.42578125 0.10546875 C3.63814453 0.14607422 3.63814453 0.14607422 4.875 0.1875 C5.48988281 0.22230469 6.10476563 0.25710938 6.73828125 0.29296875 C6.73828125 0.95296875 6.73828125 1.61296875 6.73828125 2.29296875 C0.79828125 2.78796875 0.79828125 2.78796875 -5.26171875 3.29296875 C-2.26171875 0.29296875 -2.26171875 0.29296875 0 0 Z " fill="#C5F0FA" transform="translate(615.26171875,431.70703125)"/>
<path d="M0 0 C0.66 0 1.32 0 2 0 C1.67 2.97 1.34 5.94 1 9 C-0.32 9 -1.64 9 -3 9 C-2.67 7.02 -2.34 5.04 -2 3 C-1.34 3 -0.68 3 0 3 C0 2.01 0 1.02 0 0 Z " fill="#B0EEFB" transform="translate(122,456)"/>
<path d="M0 0 C0.66 0.33 1.32 0.66 2 1 C1.505 1.928125 1.01 2.85625 0.5 3.8125 C-1.21289852 6.86527516 -1.21289852 6.86527516 -1 10 C-2.65 10.66 -4.3 11.32 -6 12 C-4.43358249 7.69235185 -2.31663844 3.93828536 0 0 Z " fill="#B0E4F9" transform="translate(152,392)"/>
<path d="M0 0 C1.6752357 0.28718326 3.34080104 0.63128912 5 1 C6.99897128 1.33944795 8.99875639 1.67421616 11 2 C11 2.66 11 3.32 11 4 C9.37419034 3.88601335 7.74932843 3.75844341 6.125 3.625 C5.22007812 3.55539062 4.31515625 3.48578125 3.3828125 3.4140625 C1 3 1 3 -1 1 C-0.67 0.67 -0.34 0.34 0 0 Z " fill="#B9E3EE" transform="translate(446,915)"/>
<path d="M0 0 C0.66 0 1.32 0 2 0 C1.52309796 1.62566606 1.04340334 3.25051311 0.5625 4.875 C0.29566406 5.77992188 0.02882813 6.68484375 -0.24609375 7.6171875 C-1 10 -1 10 -2 12 C-2.66 12 -3.32 12 -4 12 C-3.52309796 10.37433394 -3.04340334 8.74948689 -2.5625 7.125 C-2.29566406 6.22007812 -2.02882813 5.31515625 -1.75390625 4.3828125 C-1 2 -1 2 0 0 Z " fill="#DDC275" transform="translate(741,252)"/>
<path d="M0 0 C0.66 0.33 1.32 0.66 2 1 C0.02 3.97 -1.96 6.94 -4 10 C-5.26706235 6.19881294 -4.57172296 4.6149628 -3 1 C-2.01 0.67 -1.02 0.34 0 0 Z " fill="#C5E1EC" transform="translate(268,467)"/>
<path d="M0 0 C0.93423645 3.01031744 1.04449911 3.86650268 0 7 C-3.0625 8.6875 -3.0625 8.6875 -6 10 C-4.34832443 6.4213696 -2.21713508 3.25179812 0 0 Z " fill="#CEE5ED" transform="translate(434,270)"/>
<path d="M0 0 C3.875 2.625 3.875 2.625 5 6 C5.66 6.33 6.32 6.66 7 7 C7 7.66 7 8.32 7 9 C5.68 9 4.36 9 3 9 C2.01 6.03 1.02 3.06 0 0 Z " fill="#C3E3FA" transform="translate(329,216)"/>
<path d="M0 0 C0.66 0 1.32 0 2 0 C0.90931332 3.77545388 0.0916909 6.47043472 -3 9 C-3 7.02 -3 5.04 -3 3 C-2.34 3 -1.68 3 -1 3 C-0.67 2.01 -0.34 1.02 0 0 Z " fill="#C2DBDC" transform="translate(248,501)"/>
<path d="M0 0 C8.57142857 0.85714286 8.57142857 0.85714286 12 3 C12 3.66 12 4.32 12 5 C10.56068883 4.54738642 9.12361001 4.08767021 7.6875 3.625 C6.88699219 3.36976563 6.08648437 3.11453125 5.26171875 2.8515625 C3 2 3 2 0 0 Z " fill="#E1E6DE" transform="translate(458,361)"/>
<path d="M0 0 C0.99 0.66 1.98 1.32 3 2 C1.90241493 2.84198307 0.79664683 3.67330671 -0.3125 4.5 C-0.92738281 4.9640625 -1.54226563 5.428125 -2.17578125 5.90625 C-4 7 -4 7 -7 7 C-7 6.34 -7 5.68 -7 5 C-6.030625 4.54625 -5.06125 4.0925 -4.0625 3.625 C-0.92920418 2.34213779 -0.92920418 2.34213779 0 0 Z " fill="#B5E5F6" transform="translate(632,881)"/>
<path d="M0 0 C5.57142857 5.14285714 5.57142857 5.14285714 6 9 C5.01 8.67 4.02 8.34 3 8 C2.67 7.01 2.34 6.02 2 5 C1.34 4.67 0.68 4.34 0 4 C0 2.68 0 1.36 0 0 Z " fill="#BCE6F2" transform="translate(682,445)"/>
<path d="M0 0 C1.48199902 0.44909061 2.96055236 0.90956564 4.4375 1.375 C5.26121094 1.63023437 6.08492187 1.88546875 6.93359375 2.1484375 C9 3 9 3 10 5 C8.51793505 4.745504 7.03931385 4.47088238 5.5625 4.1875 C4.73878906 4.03667969 3.91507813 3.88585937 3.06640625 3.73046875 C2.38449219 3.48941406 1.70257812 3.24835938 1 3 C0.67 2.01 0.34 1.02 0 0 Z " fill="#D9EDED" transform="translate(515,411)"/>
<path d="M0 0 C4.455 0.99 4.455 0.99 9 2 C9 2.99 9 3.98 9 5 C8.01 5 7.02 5 6 5 C6 4.34 6 3.68 6 3 C3.03 2.505 3.03 2.505 0 2 C0 1.34 0 0.68 0 0 Z " fill="#B7E1F3" transform="translate(437,378)"/>
<path d="M0 0 C0.99 0.66 1.98 1.32 3 2 C2.01 2.33 1.02 2.66 0 3 C-0.33 3.66 -0.66 4.32 -1 5 C-1.66 5 -2.32 5 -3 5 C-3 5.66 -3 6.32 -3 7 C-3.66 7 -4.32 7 -5 7 C-4.1875 4.0625 -4.1875 4.0625 -3 1 C-2.01 0.67 -1.02 0.34 0 0 Z " fill="#E5C22D" transform="translate(740,320)"/>
<path d="M0 0 C4.95 0.99 4.95 0.99 10 2 C7 4 7 4 3 4 C3 3.34 3 2.68 3 2 C2.01 2 1.02 2 0 2 C0 1.34 0 0.68 0 0 Z " fill="#E1DADD" transform="translate(473,824)"/>
<path d="M0 0 C0.66 0.33 1.32 0.66 2 1 C0.80100302 4.0831351 -0.47700477 7.06279492 -2 10 C-3.39195915 5.82412255 -1.82323219 3.86525224 0 0 Z " fill="#A9E9EB" transform="translate(242,571)"/>
<path d="M0 0 C0.66 0 1.32 0 2 0 C1.125 5.75 1.125 5.75 0 8 C-0.66 8 -1.32 8 -2 8 C-1.125 2.25 -1.125 2.25 0 0 Z " fill="#BDEDF8" transform="translate(227,542)"/>
<path d="M0 0 C0.33 0.66 0.66 1.32 1 2 C0.00390625 3.9453125 0.00390625 3.9453125 -1.4375 6.125 C-1.91058594 6.84945313 -2.38367188 7.57390625 -2.87109375 8.3203125 C-3.24363281 8.87460937 -3.61617188 9.42890625 -4 10 C-4.33 9.34 -4.66 8.68 -5 8 C-2.51612903 1.25806452 -2.51612903 1.25806452 0 0 Z " fill="#C2DFEC" transform="translate(262,477)"/>
<path d="M0 0 C4.455 0.99 4.455 0.99 9 2 C9 2.66 9 3.32 9 4 C4.545 3.01 4.545 3.01 0 2 C0 1.34 0 0.68 0 0 Z " fill="#C8F0FA" transform="translate(525,416)"/>
<path d="M0 0 C3.99996286 1.33332095 4.83782337 3.4957827 7 7 C6.67 7.66 6.34 8.32 6 9 C2.81227007 6.87484671 1.75079247 5.33484279 0 2 C0 1.34 0 0.68 0 0 Z " fill="#BEEBFA" transform="translate(339,230)"/>
<path d="M0 0 C1.32 0.66 2.64 1.32 4 2 C2.71086513 2.67154933 1.41859796 3.33708859 0.125 4 C-0.59429688 4.37125 -1.31359375 4.7425 -2.0546875 5.125 C-4 6 -4 6 -6 6 C-6 5.34 -6 4.68 -6 4 C-4.7934375 3.566875 -4.7934375 3.566875 -3.5625 3.125 C-0.8673532 2.26737432 -0.8673532 2.26737432 0 0 Z " fill="#B8EDF8" transform="translate(609,893)"/>
<path d="M0 0 C1.9451 2.91765 2.45276317 4.62537285 3 8 C2.01 8 1.02 8 0 8 C-0.38063221 5.6739143 -0.71269945 3.33944736 -1 1 C-0.67 0.67 -0.34 0.34 0 0 Z " fill="#C5DDFC" transform="translate(760,602)"/>
<path d="M0 0 C0.66 0 1.32 0 2 0 C1.67 1.98 1.34 3.96 1 6 C0.34 6 -0.32 6 -1 6 C-1.33 7.32 -1.66 8.64 -2 10 C-2 7.69 -2 5.38 -2 3 C-1.34 3 -0.68 3 0 3 C0 2.01 0 1.02 0 0 Z " fill="#D3DEE9" transform="translate(213,581)"/>
<path d="M0 0 C0.66 0 1.32 0 2 0 C0.6302836 3.99500618 -1.25722422 6.80009492 -4 10 C-3.29445932 6.33118845 -1.72264494 3.29549466 0 0 Z " fill="#C5E2EB" transform="translate(276,452)"/>
<path d="M0 0 C0.66 0.33 1.32 0.66 2 1 C-0.46153846 5.8 -0.46153846 5.8 -3.1875 6.8125 C-3.785625 6.874375 -4.38375 6.93625 -5 7 C-3.88820837 3.66462511 -2.52588702 2.36292656 0 0 Z " fill="#C0EAF2" transform="translate(345,392)"/>
<path d="M0 0 C0.66 0.33 1.32 0.66 2 1 C1.67 3.64 1.34 6.28 1 9 C-1 6 -1 6 -0.625 2.8125 C-0.41875 1.884375 -0.2125 0.95625 0 0 Z " fill="#C9E1F1" transform="translate(226,669)"/>
<path d="M0 0 C0 3.59857954 -0.95830515 5.09451118 -3 8 C-3.66 8 -4.32 8 -5 8 C-3.375 2.25 -3.375 2.25 0 0 Z " fill="#C4EBFB" transform="translate(345,351)"/>
<path d="M0 0 C0.66 0.66 1.32 1.32 2 2 C0.7260411 4.03833424 -0.61061923 6.03852126 -2 8 C-2.66 8 -3.32 8 -4 8 C-3.6875 6.0625 -3.6875 6.0625 -3 4 C-2.01 3.67 -1.02 3.34 0 3 C0 2.01 0 1.02 0 0 Z " fill="#BFEBFA" transform="translate(362,326)"/>
<path d="M0 0 C0.99 0.33 1.98 0.66 3 1 C-0.465 3.97 -0.465 3.97 -4 7 C-4 4 -4 4 -2 1.8125 C-1.34 1.214375 -0.68 0.61625 0 0 Z " fill="#FFCE27" transform="translate(789,276)"/>
<path d="M0 0 C0.66 0.99 1.32 1.98 2 3 C-0.97 5.475 -0.97 5.475 -4 8 C-4 5 -4 5 -2 2 C-1.34 2 -0.68 2 0 2 C0 1.34 0 0.68 0 0 Z " fill="#BFE9F2" transform="translate(454,244)"/>
<path d="M0 0 C0.99 0.33 1.98 0.66 3 1 C2.01 1.33 1.02 1.66 0 2 C0 2.66 0 3.32 0 4 C-0.66 4 -1.32 4 -2 4 C-2.33 4.99 -2.66 5.98 -3 7 C-3.66 7 -4.32 7 -5 7 C-4.34 5.68 -3.68 4.36 -3 3 C-2.34 3 -1.68 3 -1 3 C-0.67 2.01 -0.34 1.02 0 0 Z " fill="#E1BF3C" transform="translate(850,221)"/>
<path d="M0 0 C0.66 0.33 1.32 0.66 2 1 C0.68 3.31 -0.64 5.62 -2 8 C-2.33 7.01 -2.66 6.02 -3 5 C-1.5625 2.3125 -1.5625 2.3125 0 0 Z " fill="#ADE6FA" transform="translate(274,217)"/>
<path d="M0 0 C2.66735273 2.48952921 4.55746343 4.63408134 6 8 C3.5625 7.375 3.5625 7.375 1 6 C0.1875 2.875 0.1875 2.875 0 0 Z " fill="#BBE9E4" transform="translate(313,194)"/>
<path d="M0 0 C0.75 1.6875 0.75 1.6875 1 4 C-0.8125 6.75 -0.8125 6.75 -3 9 C-3.66 9 -4.32 9 -5 9 C-4.1875 6.5625 -4.1875 6.5625 -3 4 C-2.01 3.67 -1.02 3.34 0 3 C0 2.01 0 1.02 0 0 Z " fill="#C8E9F5" transform="translate(293,191)"/>
<path d="M0 0 C2 4 2 4 1.125 6.75 C0.75375 7.4925 0.3825 8.235 0 9 C-0.66 9 -1.32 9 -2 9 C-1.34 6.03 -0.68 3.06 0 0 Z " fill="#FFD912" transform="translate(714,79)"/>
</svg>
