<?xml version="1.0" standalone="no"?>
<!DOCTYPE svg PUBLIC "-//W3C//DTD SVG 20010904//EN"
 "http://www.w3.org/TR/2001/REC-SVG-20010904/DTD/svg10.dtd">
<svg version="1.0" xmlns="http://www.w3.org/2000/svg"
 width="988.000000pt" height="988.000000pt" viewBox="0 0 988.000000 988.000000"
 preserveAspectRatio="xMidYMid meet">
<metadata>
Created by potrace 1.14, written by Peter Selinger 2001-2017
</metadata>
<g transform="translate(0.000000,988.000000) scale(0.100000,-0.100000)"
fill="#000000" stroke="none">
<path d="M5872 8450 c-4 -3 -8 -570 -7 -1260 l0 -1255 53 -2 c30 -1 52 2 52 8
0 6 5 7 11 3 8 -4 8 0 0 15 -8 14 -9 27 -2 40 6 10 7 21 4 25 -10 9 -11 118
-1 137 4 9 4 19 1 23 -11 11 -12 66 -2 66 6 0 7 6 2 13 -12 19 -14 45 -3 52 6
4 7 11 3 18 -10 17 -10 117 0 117 6 0 6 5 0 13 -11 14 -10 237 1 255 4 6 4 12
-1 12 -10 0 -10 171 1 188 4 6 4 12 -1 12 -4 0 -8 41 -8 90 0 50 4 90 8 90 5
0 5 5 1 11 -10 17 -11 92 -2 106 5 6 5 14 -1 17 -7 5 -7 15 -1 31 5 14 6 25 2
25 -4 0 -5 57 -2 127 3 71 5 330 5 578 l0 449 -53 1 c-29 0 -56 -2 -60 -5z"/>
<path d="M0 7088 c0 -22 5 -28 23 -29 69 -4 93 -16 157 -77 25 -24 55 -51 68
-59 12 -8 22 -20 22 -25 0 -5 13 -29 30 -53 16 -24 30 -48 30 -54 0 -6 4 -11
9 -11 7 0 25 -37 88 -180 9 -19 34 -73 56 -120 22 -47 40 -91 40 -97 0 -7 4
-13 9 -13 5 0 6 -4 3 -10 -3 -5 -1 -10 4 -10 6 0 11 -9 11 -19 0 -11 9 -41 20
-67 11 -26 22 -54 24 -63 2 -9 6 -23 9 -31 3 -8 25 -67 47 -130 23 -63 45
-124 50 -135 5 -11 28 -67 50 -125 23 -58 52 -130 65 -162 13 -31 21 -59 18
-62 -4 -3 -1 -6 6 -6 8 0 11 -7 7 -15 -3 -8 0 -15 7 -16 62 -5 87 -3 87 6 0 5
5 3 10 -5 9 -13 10 -13 10 0 0 9 3 11 8 5 8 -12 52 -13 69 -2 7 5 13 5 13 0 0
-4 36 -8 80 -8 55 0 80 4 80 12 0 25 -165 480 -210 577 -11 25 -20 51 -20 58
-1 7 -9 31 -20 53 -11 22 -19 47 -20 55 0 9 -8 26 -17 39 -12 18 -13 22 -2 17
11 -6 10 -4 -1 6 -8 7 -16 20 -17 28 -6 44 -30 110 -37 103 -5 -4 -6 -3 -2 4
4 7 2 22 -5 34 -6 12 -12 38 -14 58 -1 20 -7 47 -12 61 -5 14 -9 40 -8 58 1
17 -4 32 -9 32 -7 0 -8 3 -1 8 6 4 11 27 13 52 3 63 4 70 12 70 4 0 7 6 8 13
2 29 9 45 25 61 9 10 22 26 27 37 6 10 16 19 23 19 7 0 37 15 69 34 31 19 59
32 62 29 3 -4 6 0 6 7 0 7 3 11 6 8 3 -3 32 0 65 8 33 8 85 16 115 17 51 3 85
19 71 33 -4 4 -301 7 -662 8 l-655 2 0 -28z"/>
<path d="M1687 7105 c-7 -19 5 -35 26 -35 43 0 178 -63 192 -90 8 -14 14 -22
15 -18 0 10 85 -72 86 -83 1 -5 2 -13 3 -18 0 -4 12 -19 25 -32 14 -14 32 -45
42 -69 10 -25 30 -67 45 -95 47 -86 71 -137 100 -212 5 -13 14 -35 20 -50 7
-16 15 -37 20 -48 4 -11 49 -132 99 -270 51 -137 96 -259 101 -270 6 -12 11
-28 13 -38 1 -9 5 -20 9 -23 4 -4 7 -16 7 -26 0 -10 4 -18 8 -18 5 0 9 -6 10
-12 1 -19 52 -151 62 -163 11 -13 63 -18 180 -18 169 1 195 7 181 46 -9 24 -2
57 23 105 9 17 16 33 14 34 -1 3 74 204 92 243 5 11 36 96 69 188 34 92 66
177 72 189 9 16 8 19 -2 12 -7 -4 -4 6 7 22 11 16 35 67 54 114 42 106 106
247 126 280 8 14 20 37 25 53 6 15 15 27 19 27 5 0 11 9 15 19 9 28 123 144
170 173 47 28 118 53 168 57 5 1 7 9 5 18 -3 17 -62 18 -1050 18 -693 0 -1049
-3 -1051 -10z m1261 -54 c86 -26 155 -87 188 -167 37 -90 35 -255 -6 -404 -25
-91 -140 -451 -148 -465 -4 -5 -7 -14 -9 -20 -2 -13 -38 -111 -54 -150 -7 -16
-13 -32 -14 -35 -6 -26 -30 -80 -35 -80 -7 0 -60 128 -60 142 0 4 -11 31 -23
60 -13 29 -32 76 -41 103 -10 28 -22 60 -27 73 -20 48 -28 69 -47 122 -11 30
-36 98 -55 150 -44 118 -52 145 -62 195 -28 145 -24 300 9 362 21 41 70 84
124 109 40 18 61 21 137 19 50 -2 105 -8 123 -14z"/>
<path d="M4333 7107 c-12 -20 28 -37 122 -51 113 -17 216 -54 255 -91 15 -14
29 -23 33 -20 4 3 5 2 3 -1 -2 -3 11 -22 30 -42 19 -20 34 -42 34 -50 0 -7 5
-10 12 -6 8 5 9 2 5 -9 -3 -9 -2 -19 2 -22 5 -2 12 -19 15 -37 3 -18 8 -44 11
-58 7 -34 7 -105 -1 -165 -3 -27 -7 -59 -9 -70 -1 -11 -5 -28 -9 -37 -4 -9 -5
-22 -1 -28 3 -5 1 -10 -5 -10 -6 0 -8 -5 -5 -10 4 -6 1 -17 -5 -25 -7 -8 -10
-15 -6 -15 4 0 0 -13 -9 -30 -8 -16 -15 -32 -15 -35 0 -3 0 -6 -1 -7 0 -2 -2
-11 -4 -21 -2 -10 -7 -26 -11 -35 -4 -9 -8 -21 -9 -27 0 -5 -4 -17 -8 -25 -5
-12 -17 -52 -33 -115 -1 -5 -12 -34 -23 -63 -11 -29 -20 -55 -21 -57 0 -3 -8
-21 -16 -40 -8 -20 -12 -40 -9 -45 3 -4 1 -10 -3 -12 -8 -3 -64 -158 -63 -173
0 -2 -9 -26 -20 -52 -11 -26 -23 -64 -25 -85 -5 -34 -4 -36 18 -31 51 13 66
34 113 156 26 67 53 136 60 152 21 49 67 174 67 182 0 4 5 17 11 28 6 11 12
22 13 25 2 12 29 89 70 200 41 113 41 113 43 123 0 4 7 20 15 36 9 16 12 31 9
35 -4 3 -1 6 5 6 7 0 12 7 12 16 0 9 15 46 34 84 19 37 32 71 29 74 -4 3 -1 6
5 6 7 0 12 9 12 19 0 11 5 23 10 26 6 4 8 10 5 15 -3 4 2 13 10 20 9 7 25 35
36 61 12 26 29 55 40 65 10 9 19 22 19 29 0 11 113 129 147 153 43 30 116 55
155 54 19 -1 44 25 34 35 -10 10 -1177 10 -1183 0z"/>
<path d="M6847 7105 c-2 -5 -3 -131 -3 -279 1 -231 3 -269 16 -271 24 -4 42
24 44 70 2 36 48 117 77 134 16 10 27 20 24 23 -3 3 41 32 97 64 57 32 115 66
129 76 15 10 44 20 64 23 21 2 48 11 60 19 12 8 45 17 74 21 29 4 68 13 87 21
20 8 59 16 87 18 29 2 71 8 94 15 75 21 397 39 416 23 10 -8 12 -172 12 -767
0 -416 3 -762 7 -768 7 -12 320 -19 336 -7 4 3 7 352 7 775 l0 770 115 -1
c103 -1 161 -5 225 -18 11 -2 45 -7 76 -10 31 -4 67 -9 80 -11 13 -3 38 -8 54
-11 17 -2 44 -7 60 -10 17 -4 37 -7 45 -8 8 0 18 -4 21 -8 3 -5 18 -9 35 -11
16 -2 40 -9 52 -16 12 -7 27 -9 32 -6 6 3 10 2 10 -4 0 -5 15 -12 33 -16 17
-4 57 -21 87 -37 30 -17 55 -30 55 -29 0 0 15 -4 33 -11 17 -7 32 -16 32 -20
0 -4 5 -8 11 -8 14 0 132 -118 147 -147 10 -19 15 -40 27 -113 1 -8 10 -15 21
-15 18 0 19 13 19 278 0 152 -2 278 -5 278 -3 1 -654 2 -1447 3 -957 1 -1444
-2 -1446 -9z"/>
<path d="M2056 5223 c-4 -5 -17 -8 -29 -9 -76 -3 -166 -80 -186 -159 -27 -108
-4 -187 71 -247 63 -50 87 -57 187 -55 81 2 93 5 132 32 59 41 89 104 96 197
4 59 2 82 -12 109 -37 73 -102 118 -178 122 -23 1 -45 7 -49 12 -5 6 -8 4 -8
-5 0 -11 -2 -12 -8 -2 -5 7 -12 9 -16 5z m102 -117 c10 -9 23 -16 28 -16 10 0
45 -74 47 -99 1 -20 -32 -90 -53 -111 -37 -37 -99 -44 -163 -18 -74 29 -98
156 -40 216 49 52 140 66 181 28z"/>
<path d="M2730 5197 c-145 -72 -178 -237 -74 -364 19 -23 42 -43 50 -43 8 0
14 -4 14 -8 0 -16 76 -35 135 -35 116 1 219 76 240 173 16 70 -2 175 -31 193
-8 4 -14 13 -14 20 0 13 -57 53 -105 75 -16 8 -57 16 -91 17 -52 3 -69 -1
-124 -28z m173 -82 c142 -59 93 -281 -60 -269 -56 4 -89 26 -118 79 -38 67 -4
158 70 191 39 17 65 17 108 -1z"/>
<path d="M7509 5211 c-7 -87 -6 -88 61 -86 33 0 66 -2 73 -7 9 -5 12 -55 12
-184 l0 -178 43 -1 c48 -1 56 5 58 53 2 19 5 36 7 39 3 2 1 18 -3 34 -5 16 -5
29 -1 29 10 0 8 41 -3 59 -6 10 -5 12 2 7 16 -10 15 7 0 23 -9 10 -9 12 -1 7
9 -5 12 7 10 42 -1 60 14 77 66 76 21 0 40 3 43 8 3 4 13 4 23 -2 16 -8 18 -5
16 31 -1 22 -5 43 -9 46 -4 4 -73 8 -154 9 -81 2 -168 5 -194 7 -39 4 -48 1
-49 -12z"/>
<path d="M850 5208 c0 -7 14 -57 31 -112 17 -54 32 -104 34 -110 1 -6 5 -18 8
-26 4 -8 21 -55 38 -105 33 -97 46 -118 61 -109 6 4 29 8 51 9 34 2 44 8 57
31 16 29 61 168 63 192 0 6 4 12 9 12 5 0 7 4 4 9 -4 5 -2 20 3 33 7 17 10 19
14 8 18 -56 67 -220 73 -243 8 -37 19 -42 87 -43 47 0 60 3 68 18 5 10 7 18 4
18 -3 0 1 14 10 30 9 17 13 30 10 30 -3 0 1 14 10 30 9 17 13 30 11 30 -3 0
-1 12 5 28 15 39 79 259 79 272 0 6 -12 9 -27 6 -16 -2 -38 -5 -51 -5 -17 -1
-28 -12 -43 -48 -11 -27 -21 -56 -22 -65 -1 -10 -5 -18 -10 -18 -5 0 -7 -7 -4
-15 4 -8 2 -17 -4 -20 -5 -4 -7 -10 -4 -15 3 -5 1 -11 -5 -15 -6 -4 -8 -11 -5
-16 4 -5 1 -9 -5 -9 -6 0 -9 -4 -6 -9 4 -5 1 -22 -4 -37 -13 -34 -31 -21 -36
27 -2 18 -7 35 -12 38 -4 3 -7 11 -7 16 -1 30 -57 185 -68 186 -83 6 -88 5
-103 -15 -16 -23 -84 -226 -84 -251 0 -8 -6 -15 -12 -15 -10 0 -52 107 -64
160 0 3 -4 12 -7 20 -4 8 -9 24 -11 35 -11 54 -18 63 -52 67 -19 2 -38 0 -43
-5 -5 -5 -12 -4 -15 2 -9 15 -26 14 -26 -1z"/>
<path d="M3408 5201 c-4 -14 -3 -426 1 -442 0 -3 63 -4 139 -3 153 2 189 12
243 67 38 38 68 131 62 191 -8 77 -52 135 -132 176 -38 19 -63 22 -177 24
-114 2 -133 0 -136 -13z m243 -87 c56 -29 80 -60 86 -112 6 -62 -14 -105 -65
-135 -41 -25 -48 -26 -119 -30 -31 -2 -54 1 -56 7 -3 10 -1 266 2 290 2 12
119 -3 152 -20z"/>
<path d="M4098 5212 c-10 -2 -18 -7 -18 -11 0 -4 20 -40 45 -80 25 -40 45 -77
45 -81 0 -5 4 -10 8 -12 5 -1 23 -29 41 -60 27 -49 32 -69 35 -135 l2 -78 49
0 48 0 3 70 c4 93 3 90 55 170 144 221 144 220 78 219 -54 -1 -64 -10 -133
-114 l-48 -73 -32 54 c-61 104 -78 129 -89 130 -32 4 -74 4 -89 1z"/>
<path d="M8313 5196 c-10 -11 -25 -37 -34 -56 -9 -19 -23 -51 -32 -70 -22 -47
-56 -129 -56 -135 -1 -3 -8 -19 -16 -35 -8 -16 -15 -32 -16 -35 0 -2 -9 -24
-19 -47 -29 -63 -27 -66 32 -63 53 3 58 6 91 65 l17 32 73 -6 c126 -11 137
-14 137 -46 0 -11 10 -25 23 -31 25 -14 107 -20 107 -9 0 9 -63 177 -84 225
-58 131 -91 202 -101 213 -7 7 -33 15 -58 16 -37 3 -49 -1 -64 -18z m89 -171
c17 -36 28 -68 25 -71 -7 -7 -105 -9 -112 -3 -4 5 47 139 53 139 1 0 16 -29
34 -65z"/>
<path d="M8891 5210 c-3 -3 -6 -106 -6 -230 l0 -225 45 -1 c25 0 50 3 55 7 8
6 13 382 6 445 -1 11 -86 14 -100 4z"/>
<path d="M1274 4463 c-16 -5 -11 -24 46 -178 26 -71 71 -193 99 -270 29 -77
56 -149 60 -160 5 -11 14 -33 19 -50 11 -33 163 -433 183 -480 7 -16 11 -34
10 -39 -1 -4 2 -13 7 -20 5 -6 22 -45 37 -86 15 -41 33 -88 40 -105 7 -16 26
-64 42 -105 25 -65 33 -75 54 -75 20 0 29 12 60 85 20 47 37 87 36 90 0 3 5
19 12 35 14 36 73 188 135 345 24 64 46 122 48 130 2 8 5 17 8 20 3 3 11 23
19 45 8 22 18 51 24 65 6 14 11 28 12 33 2 4 3 8 5 10 1 1 3 9 5 17 2 8 27 74
55 145 29 72 58 149 65 172 8 24 21 58 29 75 8 18 22 56 32 83 9 28 21 55 25
60 3 6 10 25 14 43 3 17 10 32 14 32 4 0 8 8 8 18 1 9 4 28 5 42 3 24 0 26
-45 21 -7 0 -20 -20 -29 -43 -54 -141 -194 -516 -219 -588 -17 -47 -34 -94
-39 -105 -4 -11 -25 -67 -45 -125 -62 -180 -67 -191 -77 -188 -6 2 -18 24 -28
48 -9 25 -21 54 -25 65 -5 11 -9 23 -10 28 -2 4 -3 8 -5 10 -1 1 -3 11 -5 22
-2 10 -8 28 -14 40 -5 11 -39 99 -75 195 -128 342 -156 415 -166 432 -5 10
-10 22 -10 27 0 5 -7 25 -15 45 -8 20 -15 37 -14 38 1 2 -8 22 -20 46 -20 39
-24 42 -64 43 -68 2 -108 6 -114 13 -3 3 -12 1 -19 -5 -8 -7 -14 -7 -19 1 -5
8 -11 8 -21 -1 -11 -9 -14 -8 -14 2 0 10 -3 10 -12 1 -8 -8 -15 -8 -23 -2 -16
13 -47 2 -38 -14 3 -6 -2 -4 -13 5 -10 9 -24 15 -30 12z"/>
<path d="M2993 4446 c4 -20 31 -98 48 -141 4 -11 22 -60 39 -110 17 -49 54
-151 81 -225 28 -74 60 -160 71 -190 11 -30 25 -68 31 -85 7 -16 12 -33 13
-37 1 -5 3 -10 4 -13 1 -3 3 -8 5 -12 1 -5 5 -17 10 -28 9 -23 37 -94 160
-415 48 -124 92 -236 98 -250 5 -14 11 -29 11 -35 1 -16 48 -18 57 -3 5 7 31
69 57 138 27 69 53 134 57 145 5 11 9 22 10 25 1 3 5 14 10 25 4 11 20 52 35
90 15 39 31 79 35 90 4 11 9 25 11 30 4 14 193 516 204 540 11 26 85 229 106
291 9 27 22 63 29 79 16 36 35 95 35 106 0 5 -10 7 -22 5 -13 -3 -25 -5 -28
-5 -15 -2 -156 -350 -175 -431 -2 -8 -25 -71 -50 -140 -26 -69 -53 -143 -60
-165 -7 -22 -27 -80 -45 -130 -18 -49 -33 -94 -35 -100 -1 -5 -7 -23 -13 -38
-7 -16 -12 -34 -12 -42 0 -8 -5 -17 -12 -21 -7 -4 -8 -3 -4 4 4 7 3 12 -3 12
-6 0 -14 15 -20 33 -5 17 -20 61 -34 97 -13 36 -45 121 -71 190 -26 69 -50
132 -53 140 -4 8 -7 17 -8 20 -1 3 -9 22 -18 44 -9 21 -17 43 -17 48 0 5 -9
28 -20 50 -11 23 -20 47 -20 53 0 6 -9 30 -20 53 -11 22 -20 45 -20 49 0 4
-24 67 -53 138 -50 123 -55 130 -83 133 -16 1 -96 4 -177 5 -147 4 -149 4
-144 -17z"/>
<path d="M8126 4455 c-2 -5 -2 -27 -1 -47 2 -21 -1 -38 -6 -38 -5 0 -4 -12 1
-26 7 -16 7 -23 0 -19 -7 4 -7 -2 -1 -18 6 -14 8 -27 6 -29 -3 -2 -7 -94 -9
-203 -13 -475 -22 -641 -42 -740 -9 -40 -17 -90 -17 -102 0 -7 -6 -14 -13 -17
-7 -3 -15 -18 -19 -35 -4 -17 -11 -31 -17 -31 -6 0 -9 -3 -5 -6 16 -16 -114
-108 -160 -114 -2 0 -6 -1 -10 -1 -14 -3 -38 -6 -59 -8 -20 -1 -40 -38 -28
-50 6 -6 1052 -10 1069 -4 17 6 15 41 -3 48 -9 3 -36 8 -61 11 -64 7 -101 23
-141 63 -19 20 -35 38 -35 41 -1 3 -6 15 -13 28 -23 40 -52 144 -65 227 -8 52
-13 193 -12 397 0 175 -3 318 -7 318 -4 0 -3 14 2 30 5 18 5 30 0 30 -6 0 -6
10 0 24 5 13 6 27 3 30 -9 9 -10 157 -1 162 5 3 5 11 1 17 -4 7 -8 21 -9 32 0
11 -2 25 -2 30 -3 14 -340 14 -346 0z"/>
<path d="M5859 3821 c-1 -3 -3 -179 -5 -391 -2 -212 -6 -515 -9 -675 -3 -159
-5 -294 -5 -300 0 -5 1 -47 2 -93 2 -47 -1 -82 -6 -82 -6 0 -5 -5 0 -10 10
-10 8 -89 -1 -98 -2 -2 0 -14 5 -26 4 -13 5 -28 0 -35 -4 -7 -4 -28 0 -47 4
-19 5 -36 1 -38 -3 -2 -6 -123 -6 -268 l0 -263 41 1 c22 0 51 4 65 7 l25 6 3
318 c6 585 7 1983 2 1990 -7 10 -111 13 -112 4z"/>
</g>
</svg>
