<?xml version="1.0" encoding="UTF-8"?>
<!DOCTYPE svg PUBLIC "-//W3C//DTD SVG 1.1//EN" "http://www.w3.org/Graphics/SVG/1.1/DTD/svg11.dtd">
<svg xmlns="http://www.w3.org/2000/svg" version="1.1" width="1076px" height="742px" style="shape-rendering:geometricPrecision; text-rendering:geometricPrecision; image-rendering:optimizeQuality; fill-rule:evenodd; clip-rule:evenodd" xmlns:xlink="http://www.w3.org/1999/xlink">
<g><path style="opacity:1" fill="#e5e5e5" d="M 636.5,84.5 C 636.628,169.502 636.295,254.502 635.5,339.5C 632.833,339.5 630.167,339.5 627.5,339.5C 627.5,308.833 627.5,278.167 627.5,247.5C 628.499,193.336 628.832,139.003 628.5,84.5C 631.167,84.5 633.833,84.5 636.5,84.5 Z"/></g>
<g><path style="opacity:0.99" fill="#d5b058" d="M 713.5,201.5 C 797.833,201.5 882.167,201.5 966.5,201.5C 966.969,217.263 966.469,232.929 965,248.5C 961.856,237.05 955.022,228.55 944.5,223C 930.031,215.399 914.698,210.399 898.5,208C 884.382,205.952 870.382,204.785 856.5,204.5C 855.5,249.495 855.167,294.495 855.5,339.5C 845.167,339.5 834.833,339.5 824.5,339.5C 824.5,294.167 824.5,248.833 824.5,203.5C 800.404,204.68 776.738,208.514 753.5,215C 740.961,219.183 730.127,226.017 721,235.5C 718.781,239.271 717.115,243.271 716,247.5C 713.973,232.286 713.139,216.953 713.5,201.5 Z"/></g>
<g><path style="opacity:0.975" fill="#d6b058" d="M 118.5,202.5 C 154.195,202.054 189.861,202.554 225.5,204C 214.526,204.991 204.192,207.991 194.5,213C 188.071,218.696 185.071,225.863 185.5,234.5C 185.8,243.708 187.3,252.708 190,261.5C 197.47,282.244 205.137,302.911 213,323.5C 215.103,328.302 216.269,333.302 216.5,338.5C 206.917,338.818 197.417,338.485 188,337.5C 174.773,301.713 160.44,266.38 145,231.5C 138.207,218.038 127.707,208.871 113.5,204C 115.382,203.802 117.048,203.302 118.5,202.5 Z"/></g>
<g><path style="opacity:0.976" fill="#d4af58" d="M 272.5,202.5 C 328.853,202.047 385.186,202.547 441.5,204C 429.104,207.719 419.604,215.219 413,226.5C 395.2,262.562 380.533,299.895 369,338.5C 358.953,339.911 348.953,339.577 339,337.5C 325.933,300.367 310.933,264.034 294,228.5C 287.776,215.466 277.609,207.299 263.5,204C 266.695,203.819 269.695,203.319 272.5,202.5 Z M 353.5,205.5 C 382.362,203.544 394.529,216.877 390,245.5C 389.441,249.186 388.774,252.853 388,256.5C 381.138,279.586 373.638,302.253 365.5,324.5C 357.201,304.531 349.367,284.198 342,263.5C 336.852,250.282 334.852,236.616 336,222.5C 338.449,213.216 344.282,207.549 353.5,205.5 Z"/></g>
<g><path style="opacity:0.957" fill="#d4af58" d="M 499.5,202.5 C 530.542,202.038 561.542,202.538 592.5,204C 582.808,206.268 574.975,211.435 569,219.5C 562.049,229.063 556.383,239.396 552,250.5C 541,278.5 530,306.5 519,334.5C 518.081,337.644 516.248,338.644 513.5,337.5C 521.487,312.553 529.32,287.553 537,262.5C 545.821,228.626 532.988,209.126 498.5,204C 499.056,203.617 499.389,203.117 499.5,202.5 Z"/></g>
<g><path style="opacity:1" fill="#b5b5b7" d="M 636.5,84.5 C 633.833,84.5 631.167,84.5 628.5,84.5C 628.832,139.003 628.499,193.336 627.5,247.5C 627.5,192.833 627.5,138.167 627.5,83.5C 630.713,83.19 633.713,83.5233 636.5,84.5 Z"/></g>
<g><path style="opacity:0.974" fill="#cfae69" d="M 408.5,367.5 C 415.868,367.464 423.201,367.964 430.5,369C 446.063,372.959 450.896,382.459 445,397.5C 441.278,402.781 436.112,405.614 429.5,406C 422.524,406.892 415.524,407.392 408.5,407.5C 408.5,394.167 408.5,380.833 408.5,367.5 Z M 417.5,374.5 C 424.89,373.215 431.39,374.881 437,379.5C 440.333,384.833 440.333,390.167 437,395.5C 431.39,400.119 424.89,401.785 417.5,400.5C 417.5,391.833 417.5,383.167 417.5,374.5 Z"/></g>
<g><path style="opacity:1" fill="#cdad68" d="M 767.5,367.5 C 779.167,367.5 790.833,367.5 802.5,367.5C 802.5,370.167 802.5,372.833 802.5,375.5C 798.167,375.5 793.833,375.5 789.5,375.5C 789.5,386.167 789.5,396.833 789.5,407.5C 786.5,407.5 783.5,407.5 780.5,407.5C 780.5,396.833 780.5,386.167 780.5,375.5C 776.167,375.5 771.833,375.5 767.5,375.5C 767.5,372.833 767.5,370.167 767.5,367.5 Z"/></g>
<g><path style="opacity:1" fill="#cdad69" d="M 888.5,367.5 C 891.5,367.5 894.5,367.5 897.5,367.5C 897.5,380.833 897.5,394.167 897.5,407.5C 894.5,407.5 891.5,407.5 888.5,407.5C 888.5,394.167 888.5,380.833 888.5,367.5 Z"/></g>
<g><path style="opacity:0.95" fill="#cfae69" d="M 215.5,368.5 C 218.119,368.232 220.619,368.565 223,369.5C 226.147,377.947 229.48,386.28 233,394.5C 236.394,386.319 239.394,377.986 242,369.5C 244.381,368.565 246.881,368.232 249.5,368.5C 245.868,381.563 241.534,394.397 236.5,407C 233.579,407.15 230.746,406.65 228,405.5C 225.58,397.234 222.58,389.234 219,381.5C 215.803,389.422 212.803,397.422 210,405.5C 206.606,406.456 203.106,406.789 199.5,406.5C 196.009,394.202 192.676,381.868 189.5,369.5C 192.119,369.232 194.619,369.565 197,370.5C 199.352,378.393 202.185,386.059 205.5,393.5C 209.614,385.495 212.947,377.162 215.5,368.5 Z"/></g>
<g><path style="opacity:0.966" fill="#c8a967" d="M 287.5,368.5 C 308.352,365.851 317.185,374.851 314,395.5C 307.929,405.422 299.096,408.922 287.5,406C 277.166,401.5 272.999,393.667 275,382.5C 276.926,375.745 281.093,371.078 287.5,368.5 Z M 294.5,374.5 C 305.7,377.235 309.2,383.902 305,394.5C 298.333,402.5 291.667,402.5 285,394.5C 280.895,384.377 284.062,377.71 294.5,374.5 Z"/></g>
<g><path style="opacity:0.961" fill="#caaa67" d="M 354.5,368.5 C 376.96,367.111 385.127,377.111 379,398.5C 372.382,405.815 364.216,408.315 354.5,406C 341.56,400.8 337.726,391.634 343,378.5C 345.566,373.645 349.399,370.311 354.5,368.5 Z M 360.5,374.5 C 372.929,377.782 376.095,385.116 370,396.5C 359.17,402.816 352.004,399.816 348.5,387.5C 349.81,380.528 353.81,376.195 360.5,374.5 Z"/></g>
<g><path style="opacity:0.966" fill="#d1af69" d="M 472.5,368.5 C 475.374,368.623 477.874,369.623 480,371.5C 483,376.167 486,380.833 489,385.5C 492.129,380.074 495.629,374.907 499.5,370C 501.83,368.655 504.163,368.488 506.5,369.5C 502,377.167 497.5,384.833 493,392.5C 492.501,397.489 492.334,402.489 492.5,407.5C 489.833,407.5 487.167,407.5 484.5,407.5C 484.666,402.489 484.499,397.489 484,392.5C 480.333,386.167 476.667,379.833 473,373.5C 472.506,371.866 472.34,370.199 472.5,368.5 Z"/></g>
<g><path style="opacity:0.966" fill="#d0af69" d="M 840.5,368.5 C 843.365,368.055 845.865,368.722 848,370.5C 854.011,382.183 859.178,394.183 863.5,406.5C 861.473,406.662 859.473,406.495 857.5,406C 855.833,403.667 854.167,401.333 852.5,399C 846.141,398.169 839.807,398.336 833.5,399.5C 831.758,404.259 828.425,406.593 823.5,406.5C 827.236,392.954 832.903,380.287 840.5,368.5 Z M 841.5,379.5 C 842.251,378.427 843.251,378.26 844.5,379C 843.366,380.016 843.699,380.683 845.5,381C 845.167,381.333 844.833,381.667 844.5,382C 847.092,385.018 848.758,388.518 849.5,392.5C 845.167,392.5 840.833,392.5 836.5,392.5C 837.741,387.402 839.741,383.235 842.5,380C 842.272,379.601 841.938,379.435 841.5,379.5 Z"/></g>
<g><path style="opacity:0.963" fill="#d6b058" d="M 229.5,441.5 C 239.083,441.182 248.583,441.515 258,442.5C 268.295,470.892 279.461,498.892 291.5,526.5C 302.148,500.396 312.314,474.063 322,447.5C 322.707,445.919 323.54,444.419 324.5,443C 325.483,442.409 326.15,442.743 326.5,444C 314.393,477.655 301.893,511.155 289,544.5C 285.698,553.103 281.864,561.437 277.5,569.5C 259.624,528.223 243.291,486.223 228.5,443.5C 228.863,442.817 229.196,442.15 229.5,441.5 Z"/></g>
<g><path style="opacity:0.964" fill="#d6b058" d="M 379.5,441.5 C 389.416,441.181 399.25,441.514 409,442.5C 419.295,470.892 430.461,498.892 442.5,526.5C 444.121,524.847 445.288,522.847 446,520.5C 454.881,494.523 464.547,468.856 475,443.5C 476.156,442.007 476.99,442.174 477.5,444C 465.393,477.655 452.893,511.155 440,544.5C 436.698,553.103 432.864,561.437 428.5,569.5C 411.814,529.961 395.98,489.961 381,449.5C 380.178,446.883 379.678,444.216 379.5,441.5 Z"/></g>
<g><path style="opacity:0.964" fill="#e2e2e2" d="M 632.5,440.5 C 633.833,440.5 635.167,440.5 636.5,440.5C 635.586,524.829 635.253,609.162 635.5,693.5C 632.5,693.5 629.5,693.5 626.5,693.5C 627.082,615.501 627.582,537.501 628,459.5C 628.333,454.167 628.667,448.833 629,443.5C 630.145,442.364 631.312,441.364 632.5,440.5 Z"/></g>
<g><path style="opacity:0.984" fill="#d5af58" d="M 824.5,440.5 C 834.5,440.5 844.5,440.5 854.5,440.5C 855.248,461.152 855.748,481.819 856,502.5C 856.115,514.251 857.115,525.917 859,537.5C 861.914,551.413 870.414,559.58 884.5,562C 869.543,563.125 854.543,563.625 839.5,563.5C 824.129,563.617 808.796,563.117 793.5,562C 799.468,560.423 805.135,558.09 810.5,555C 815.337,550.498 818.503,544.998 820,538.5C 822.692,524.977 824.025,511.311 824,497.5C 824.5,478.503 824.667,459.503 824.5,440.5 Z"/></g>
</svg>
